<svg width="692" height="309" viewBox="0 0 692 309" fill="none" xmlns="http://www.w3.org/2000/svg">
<path d="M39 232.167L0 309H692L650 232.167H39Z" fill="#E1DACD"/>
<path d="M508.494 227.857L512.648 257.464C512.648 257.464 514.212 259.165 509.804 260.942L501.377 228.315L508.494 227.857Z" fill="#351A13"/>
<path d="M495.332 228.533C495.332 228.533 507.053 265.938 508.058 269.566C508.719 271.951 513.626 270.729 512.83 267.914C512.164 265.558 503.929 228.088 503.929 228.088L495.332 228.533Z" fill="#442118"/>
<path d="M569.012 159.046C569.564 158.678 573.942 159.155 577.667 159.643C580.589 160.026 582.568 162.814 581.973 165.7C578.766 181.248 569.552 225.701 569.012 225.701C568.358 225.701 553.982 225.701 553.982 225.701L569.012 159.046Z" fill="#612F09"/>
<path d="M132.131 131.311H48.084V167.004H132.131V131.311Z" fill="#F4F4F9"/>
<path opacity="0.3" d="M86.204 139.444C86.204 141.24 87.659 142.696 89.456 142.696C91.253 142.696 92.708 141.24 92.708 139.444C92.708 137.648 91.253 136.193 89.456 136.193C87.659 136.193 86.204 137.648 86.204 139.444Z" fill="#3B2B23"/>
<path d="M132.131 168.327H48.084V203.383H132.131V168.327Z" fill="#F4F4F9"/>
<path opacity="0.3" d="M86.204 175.173C86.204 176.969 87.659 178.426 89.456 178.426C91.253 178.426 92.708 176.969 92.708 175.173C92.708 173.376 91.253 171.922 89.456 171.922C87.659 171.922 86.204 173.376 86.204 175.173Z" fill="#0C0C0C"/>
<path d="M86.856 174.497C86.856 176.293 88.313 177.749 90.109 177.749C91.905 177.749 93.361 176.293 93.361 174.497C93.361 172.699 91.905 171.244 90.109 171.244C88.312 171.244 86.856 172.699 86.856 174.497Z" fill="#D1D1D3"/>
<path d="M86.855 138.707C86.855 140.502 88.311 141.959 90.108 141.959C91.904 141.959 93.36 140.502 93.36 138.707C93.36 136.91 91.904 135.456 90.108 135.456C88.311 135.456 86.855 136.91 86.855 138.707Z" fill="#D1D1D3"/>
<path d="M47.891 130.031H45.361V205.207H47.891V130.031Z" fill="#D1D1D3"/>
<path d="M134.622 129.934H132.536V203.799H134.622V129.934Z" fill="#D1D1D3"/>
<path d="M134.622 203.797H45.361V207.609H134.622V203.797Z" fill="#D1D1D3"/>
<path opacity="0.3" d="M132.131 167.005H48.084V168.327H132.131V167.005Z" fill="#3B2B23"/>
<path opacity="0.3" d="M132.131 203.206H48.084V203.8H132.131V203.206Z" fill="#3B2B23"/>
<path opacity="0.3" d="M132.536 130.546H48.084V131.312H132.536V130.546Z" fill="#3B2B23"/>
<path opacity="0.3" d="M132.536 130.546H131.86V203.8H132.536V130.546Z" fill="#3B2B23"/>
<path opacity="0.3" d="M48.234 130.448H47.822V203.8H48.234V130.448Z" fill="#3B2B23"/>
<path d="M135.634 128.038H45.361V130.527H135.634V128.038Z" fill="#BCBCBC"/>
<path d="M135.634 128.038H45.867L48.115 125.935H132.833L135.634 128.038Z" fill="#D1D1D3"/>
<path d="M54.473 222.902L48.866 263.629C48.866 263.629 49.099 264.673 51.317 265.139C53.535 265.607 54.155 265.079 54.622 264.496C55.003 264.02 62.115 226.475 64.725 212.65L54.473 222.902Z" fill="#E4E4EA"/>
<path d="M65.675 207.608H56.578L54.473 222.902L64.725 212.65C65.314 209.525 65.675 207.608 65.675 207.608Z" fill="#D1D1D3"/>
<path d="M117.152 207.608L122.135 243.799C122.135 243.799 121.984 244.472 120.551 244.774C119.118 245.075 118.717 244.734 118.415 244.357C118.114 243.981 111.276 207.608 111.276 207.608H117.152Z" fill="#C4C4C6"/>
<path d="M124.419 207.608H115.322C115.322 207.608 115.749 209.883 116.436 213.518L126.636 223.719L124.419 207.608Z" fill="#D1D1D3"/>
<path d="M126.635 222.807L116.435 212.606C119.165 227.071 126 263.117 126.373 263.584C126.84 264.168 127.461 264.695 129.679 264.228C131.896 263.762 132.13 262.72 132.13 262.72L126.635 222.807Z" fill="#E4E4EA"/>
<path d="M552.066 155.561L543.964 187.344L551.091 189.25L557.638 195.383L557.74 209.037L569.394 160.788C565.428 155.945 561.924 152.329 558.008 147.631C554.556 149.362 552.066 155.561 552.066 155.561Z" fill="#9B767B"/>
<path d="M581.034 161.45L563.948 147.392C563.948 147.392 561.879 145.976 558.284 147.501C558.191 147.541 558.099 147.585 558.007 147.631C558.007 147.631 565.255 156.105 569.393 160.788C569.393 160.788 577.126 158.371 581.034 161.45Z" fill="#B58C90"/>
<path d="M183.819 227.857L179.665 257.464C179.665 257.464 178.101 259.165 182.509 260.942L190.936 228.315L183.819 227.857Z" fill="#351A13"/>
<path d="M196.981 228.533C196.981 228.533 185.26 265.938 184.255 269.566C183.594 271.951 178.687 270.729 179.483 267.914C180.149 265.558 188.384 228.088 188.384 228.088L196.981 228.533Z" fill="#442118"/>
<path d="M347.935 207.73H344.378H130.979L129.777 225.172L346.733 236.935L561.334 225.156V207.73H347.935Z" fill="#612F09"/>
<path d="M123.301 159.046C122.749 158.678 118.371 159.155 114.646 159.643C111.724 160.026 109.745 162.814 110.34 165.7C113.547 181.248 122.761 225.701 123.301 225.701C123.954 225.701 138.331 225.701 138.331 225.701L123.301 159.046Z" fill="#612F09"/>
<path d="M553.71 161.45C549.845 144.388 537.789 114.2 535.417 107.529C531.15 95.528 521.04 79.429 498.73 79.373L477.91 78.943L346.732 76.834V76.815L346.156 76.824L345.58 76.815V76.834L214.402 78.943L193.582 79.373C171.272 79.429 161.162 95.527 156.895 107.529C154.523 114.199 142.468 144.388 138.602 161.45C133.947 181.998 137.627 189.25 137.627 189.25L346.156 175.607L554.685 189.25C554.685 189.25 558.365 181.998 553.71 161.45Z" fill="#B58C90"/>
<path d="M140.247 155.561L148.349 187.344L141.222 189.25L134.675 195.383L134.573 209.037L122.919 160.788C126.885 155.945 130.389 152.329 134.305 147.631C137.757 149.362 140.247 155.561 140.247 155.561Z" fill="#9B767B"/>
<path d="M111.279 161.45L128.365 147.392C128.365 147.392 130.434 145.976 134.029 147.501C134.122 147.541 134.214 147.585 134.306 147.631C134.306 147.631 127.058 156.105 122.92 160.788C122.919 160.788 115.186 158.371 111.279 161.45Z" fill="#B58C90"/>
<path d="M550.036 188.997L139.375 189.25C136.247 189.25 134.653 192.411 134.653 196.621V207.73H344.378H347.935H557.66V196.621C557.66 192.41 554.247 188.997 550.036 188.997Z" fill="#82464B"/>
<path d="M498.817 179.739C470.717 178.432 359.952 175.426 359.952 175.426H347.935H344.378H332.36C332.36 175.426 221.595 178.432 193.495 179.739C165.395 181.046 138.33 189.379 138.33 189.379L347.934 188.996H553.71C553.71 188.997 526.917 181.046 498.817 179.739Z" fill="#C9A7AC"/>
<path d="M596.947 29.239L596.945 28.684C596.91 17.878 596.861 3.08 575.855 2.717C560.959 2.435 553.454 13.211 550.936 17.847L549.379 16.685C552.062 11.743 560.025 0.275996 575.881 0.552996C598.699 0.947996 598.755 18.305 598.789 28.676L598.791 29.229L596.947 29.239Z" fill="#3D513A"/>
<path d="M573.298 259.186C573.297 262.672 584.294 265.506 597.863 265.517C611.431 265.528 622.432 262.705 622.434 259.216C622.435 255.73 611.438 252.891 597.87 252.884C584.301 252.876 573.3 255.694 573.298 259.186Z" fill="#334430"/>
<path d="M599.094 96.797H596.629V210.075C597.453 209.39 598.274 208.704 599.094 208.02V96.797Z" fill="#3D513A"/>
<path d="M596.629 210.075V258.021H599.094V208.02C598.274 208.704 597.453 209.39 596.629 210.075Z" fill="#364733"/>
<path d="M598.93 28.222H596.793V97.67H598.93V28.222Z" fill="#ADBF9E"/>
<path d="M552.975 12.29C552.975 12.29 550.498 10.233 546.781 12.387L554.31 18.339C555.548 14.225 552.975 12.29 552.975 12.29Z" fill="#D8D6BC"/>
<path d="M546.781 12.386C545.783 12.964 544.696 13.843 543.542 15.151L547.955 18.639L548.059 18.721L550.65 15.444L546.781 12.386Z" fill="#E8E7C8"/>
<path d="M554.31 18.339L550.649 15.445L548.058 18.722L552.367 22.128C553.374 20.704 553.978 19.444 554.31 18.339Z" fill="#BCBBA2"/>
<path d="M542.837 37.428C546.59 31.082 543.822 24.791 548.103 18.757L547.955 18.64L543.542 15.152C543.542 15.152 531.323 21.194 528.833 21.331C524.7 21.559 519.009 26.046 513.99 34.394L527.228 44.859L533.775 50.035C537.044 46.028 540.319 42.027 542.837 37.428Z" fill="#3D513A"/>
<path d="M549.75 37.866C549.309 35.412 552.368 22.128 552.368 22.128L548.103 18.757C543.822 24.791 546.59 31.082 542.837 37.428C540.319 42.027 537.044 46.029 533.775 50.035L540.465 55.324C547.43 48.514 550.482 41.94 549.75 37.866Z" fill="#2F3F2C"/>
<path d="M540.38 55.4241C540.9 54.7652 535.406 49.559 528.108 43.7956C520.811 38.0322 514.473 33.8941 513.953 34.5529C513.432 35.2117 518.926 40.4179 526.224 46.1813C533.522 51.9448 539.86 56.0829 540.38 55.4241Z" fill="#E5DC98"/>
<path d="M221.48 187.437C216.742 186.956 204.127 183.716 194.904 184.071C196.271 183.309 197.595 182.549 198.682 181.978C206.613 178.872 214.468 181.576 221.48 187.437Z" fill="#AFA197"/>
<path d="M220.951 144.126C220.462 149.903 219.403 172.092 221.041 174.828C221.38 175.39 221.794 176.19 222.216 177.117C216.543 170.166 216.491 155.472 220.951 144.126Z" fill="#AFA197"/>
<path d="M139.761 131.679C140.148 131.29 140.655 131.185 141.331 131.451C147.473 133.882 213.225 130.549 216.142 129.406C219.063 128.261 223.404 129.492 223.404 129.492C224.779 135.99 221.459 140.074 221.063 143.014C221.029 143.245 220.994 143.633 220.951 144.126C216.49 155.471 216.542 170.166 222.216 177.117C224.012 181.063 225.943 187.31 222.706 187.49C222.397 187.508 221.977 187.485 221.48 187.436C214.469 181.575 206.613 178.871 198.682 181.978C197.595 182.549 196.271 183.309 194.904 184.071C192.674 184.155 190.643 184.45 188.971 185.045C185.815 186.174 181.562 186.948 176.891 187.429C165.041 186.565 152.916 182.75 141.393 184.194C148.64 178.222 145.299 159.247 144.83 153.586C144.357 147.833 139.761 131.679 139.761 131.679Z" fill="#DBCDC1"/>
<path d="M141.392 184.193C152.915 182.75 165.04 186.564 176.89 187.428C160.334 189.136 138.475 187.193 141.056 184.469C141.174 184.381 141.28 184.284 141.392 184.193Z" fill="#AFA197"/>
<path d="M142.381 165.043C142.154 157.175 136.642 134.796 139.762 131.679C139.762 131.679 144.358 147.833 144.83 153.585C145.307 159.335 148.75 178.82 141.057 184.469C144.366 180.973 142.635 173.885 142.381 165.043Z" fill="#AFA197"/>
<path d="M554.897 191.46C550.261 190.369 538.173 185.521 528.982 184.678C530.436 184.1 531.847 183.518 532.999 183.093C541.265 181.041 548.704 184.74 554.897 191.46Z" fill="#9E9CAF"/>
<path d="M559.986 148.447C558.753 154.112 554.826 175.977 556.096 178.901C556.359 179.502 556.666 180.349 556.964 181.323C552.24 173.695 554.093 159.118 559.986 148.447Z" fill="#9E9CAF"/>
<path d="M481.095 125.58C481.529 125.245 482.045 125.206 482.681 125.557C488.456 128.763 554.085 133.981 557.126 133.226C560.171 132.469 564.316 134.253 564.316 134.253C564.837 140.874 561.016 144.493 560.242 147.357C560.178 147.581 560.094 147.962 559.987 148.445C554.093 159.116 552.24 173.694 556.965 181.321C558.235 185.467 559.339 191.911 556.106 191.67C555.797 191.648 555.384 191.57 554.898 191.458C548.705 184.738 541.266 181.039 533 183.091C531.848 183.516 530.437 184.098 528.983 184.676C526.761 184.47 524.709 184.499 522.973 184.872C519.697 185.582 515.38 185.799 510.686 185.67C499.048 183.278 487.52 177.923 475.907 177.861C483.867 172.879 483.014 153.631 483.282 147.956C483.558 142.194 481.095 125.58 481.095 125.58Z" fill="#BFBCCE"/>
<path d="M475.905 177.863C487.518 177.925 499.046 183.28 510.684 185.672C494.046 185.22 472.624 180.46 475.536 178.093C475.664 178.022 475.782 177.939 475.905 177.863Z" fill="#9E9CAF"/>
<path d="M479.367 159.002C480.161 151.171 477.597 128.266 481.094 125.58C481.094 125.58 483.557 142.194 483.28 147.959C483.008 153.722 483.896 173.489 475.536 178.094C479.271 175.056 478.474 167.803 479.367 159.002Z" fill="#9E9CAF"/>
<path d="M285.216 231.599L276.353 230.836C276.353 230.836 275.119 240.183 273.555 251.971C276.629 249.68 279.697 247.401 282.688 245.049C284.179 237.108 285.216 231.599 285.216 231.599Z" fill="#E4E4EA"/>
<path d="M273.555 251.972C271.015 271.111 267.602 296.692 267.177 299.195C266.357 304.026 271.415 306.123 272.096 302.03C272.829 297.627 279.086 264.232 282.687 245.05C279.697 247.401 276.629 249.68 273.555 251.972Z" fill="#F4F4F9"/>
<path d="M283.129 282.893C282.549 286.308 286.125 287.791 286.607 284.897C286.97 282.718 289.245 270.499 291.451 258.712C289.631 260.235 287.689 261.65 285.824 263.136C284.521 272.896 283.334 281.687 283.129 282.893Z" fill="#F4F4F9"/>
<path d="M289.617 234.565C289.617 234.565 287.611 249.761 285.825 263.136C287.69 261.65 289.632 260.235 291.452 258.712C293.703 246.683 295.883 235.104 295.883 235.104L289.617 234.565Z" fill="#E4E4EA"/>
<path d="M406.193 235.752L399.928 236.291C399.928 236.291 402.445 249.667 404.864 262.601C406.6 263.299 408.336 264.119 410.073 264.974C408.265 251.447 406.193 235.752 406.193 235.752Z" fill="#E4E4EA"/>
<path d="M410.072 264.975C408.336 264.119 406.6 263.299 404.863 262.602C406.9 273.494 408.867 284.072 409.202 286.084C409.684 288.978 413.26 287.495 412.68 284.08C412.48 282.9 411.341 274.471 410.072 264.975Z" fill="#F4F4F9"/>
<path d="M418.295 233.755L409.433 234.518C409.433 234.518 410.494 240.154 412.013 248.246C414.778 249.394 417.671 250.508 420.643 251.494C419.298 241.355 418.295 233.755 418.295 233.755Z" fill="#E4E4EA"/>
<path d="M420.643 251.494C417.671 250.508 414.778 249.394 412.013 248.246C415.623 267.471 421.823 300.567 422.552 304.948C423.233 309.041 428.292 306.944 427.471 302.113C427.021 299.459 423.21 270.85 420.643 251.494Z" fill="#F4F4F9"/>
<path d="M465.79 226.762C463.342 234.561 415.728 238.506 350.721 238.506C285.714 238.506 235.203 232.136 233.016 227.166C227.554 214.759 285.714 219.113 350.721 219.113C415.728 219.114 469.556 214.759 465.79 226.762Z" fill="#D1D1D3"/>
<path d="M349.318 232.277C413.597 232.277 465.705 228.355 465.705 223.518C465.705 218.681 413.597 214.759 349.318 214.759C285.039 214.759 232.931 218.681 232.931 223.518C232.931 228.355 285.039 232.277 349.318 232.277Z" fill="#F4F4F9"/>
<path d="M120.047 121.339H58.657V127.254H120.047V121.339Z" fill="#F5C276"/>
<path d="M126.76 115.423H62.814V121.338H126.76V115.423Z" fill="#6F5578"/>
<path d="M85.355 113.328H59.457V115.407H85.355V113.328Z" fill="#95A267"/>
<path d="M117.809 113.328H85.355V115.407H117.809V113.328Z" fill="#DBC194"/>
<path d="M125.641 113.328H117.809V115.407H125.641V113.328Z" fill="#95A267"/>
<g opacity="0.5">
<g opacity="0.5">
<g opacity="0.5">
<path opacity="0.5" d="M237.039 130.298C235.804 129.613 235.359 128.057 236.044 126.822C236.729 125.587 238.285 125.142 239.52 125.827C240.755 126.512 241.2 128.068 240.515 129.303C239.83 130.538 238.274 130.983 237.039 130.298Z" fill="#82464B"/>
</g>
</g>
<g opacity="0.5">
<g opacity="0.5">
<path opacity="0.5" d="M240.53 128.665L247.419 133.553L239.88 129.75L240.53 128.665Z" fill="#82464B"/>
</g>
</g>
<g opacity="0.5">
<g opacity="0.5">
<path opacity="0.5" d="M238.713 130.419L236.23 137.027L236.869 130.079L238.713 130.419Z" fill="#82464B"/>
</g>
</g>
<g opacity="0.5">
<g opacity="0.5">
<path opacity="0.5" d="M237.127 126.042L236.866 119.049L238.365 125.847L237.127 126.042Z" fill="#82464B"/>
</g>
</g>
<g opacity="0.5">
<g opacity="0.5">
<path opacity="0.5" d="M236.369 128.609L228.238 125.935L236.631 127.479L236.369 128.609Z" fill="#82464B"/>
</g>
</g>
<g opacity="0.5">
<g opacity="0.5">
<path opacity="0.5" d="M240.213 126.395L248.299 123.593L240.69 127.453L240.213 126.395Z" fill="#82464B"/>
</g>
</g>
</g>
<g opacity="0.5">
<g opacity="0.5">
<g opacity="0.5">
<path opacity="0.5" d="M456.239 130.323C455.004 129.638 454.559 128.082 455.244 126.847C455.929 125.612 457.485 125.167 458.72 125.852C459.955 126.537 460.4 128.093 459.715 129.328C459.03 130.562 457.473 131.008 456.239 130.323Z" fill="#82464B"/>
</g>
</g>
<g opacity="0.5">
<g opacity="0.5">
<path opacity="0.5" d="M459.73 128.69L466.619 133.578L459.079 129.775L459.73 128.69Z" fill="#82464B"/>
</g>
</g>
<g opacity="0.5">
<g opacity="0.5">
<path opacity="0.5" d="M457.913 130.444L455.429 137.052L456.069 130.103L457.913 130.444Z" fill="#82464B"/>
</g>
</g>
<g opacity="0.5">
<g opacity="0.5">
<path opacity="0.5" d="M456.327 126.067L456.066 119.073L457.565 125.872L456.327 126.067Z" fill="#82464B"/>
</g>
</g>
<g opacity="0.5">
<g opacity="0.5">
<path opacity="0.5" d="M455.568 128.634L447.438 125.96L455.83 127.503L455.568 128.634Z" fill="#82464B"/>
</g>
</g>
<g opacity="0.5">
<g opacity="0.5">
<path opacity="0.5" d="M459.413 126.42L467.499 123.617L459.889 127.478L459.413 126.42Z" fill="#82464B"/>
</g>
</g>
</g>
<g opacity="0.5">
<g opacity="0.5">
<g opacity="0.5">
<path opacity="0.5" d="M344.77 129.989C343.535 129.304 343.09 127.748 343.775 126.513C344.46 125.278 346.016 124.833 347.251 125.518C348.486 126.203 348.931 127.759 348.246 128.994C347.561 130.229 346.005 130.674 344.77 129.989Z" fill="#82464B"/>
</g>
</g>
<g opacity="0.5">
<g opacity="0.5">
<path opacity="0.5" d="M348.261 128.356L355.151 133.244L347.611 129.441L348.261 128.356Z" fill="#82464B"/>
</g>
</g>
<g opacity="0.5">
<g opacity="0.5">
<path opacity="0.5" d="M346.445 130.11L343.961 136.718L344.6 129.77L346.445 130.11Z" fill="#82464B"/>
</g>
</g>
<g opacity="0.5">
<g opacity="0.5">
<path opacity="0.5" d="M344.858 125.733L344.597 118.74L346.097 125.538L344.858 125.733Z" fill="#82464B"/>
</g>
</g>
<g opacity="0.5">
<g opacity="0.5">
<path opacity="0.5" d="M344.1 128.3L335.97 125.626L344.362 127.17L344.1 128.3Z" fill="#82464B"/>
</g>
</g>
<g opacity="0.5">
<g opacity="0.5">
<path opacity="0.5" d="M347.944 126.086L356.031 123.284L348.421 127.144L347.944 126.086Z" fill="#82464B"/>
</g>
</g>
</g>
<path d="M325.589 200.166C325.057 197.511 322.714 195.512 319.902 195.512C316.928 195.512 314.481 197.75 314.144 200.634C318.073 202.258 321.98 201.455 325.589 200.166Z" fill="white"/>
<path d="M314.145 200.634C314.119 200.857 314.102 201.082 314.102 201.313V219.239C314.102 222.442 325.704 222.442 325.704 219.239V201.313C325.704 200.92 325.664 200.537 325.59 200.166C321.98 201.455 318.073 202.258 314.145 200.634Z" fill="#F7F5ED"/>
<path d="M320.396 191.612H319.409V195.512H320.396V191.612Z" fill="#C1A24C"/>
<path d="M325.148 220.125H314.658C313.751 220.125 313.014 220.821 312.933 221.707H326.872C326.79 220.822 326.053 220.125 325.148 220.125Z" fill="#183542"/>
<path d="M312.933 221.707C312.928 221.76 312.917 221.81 312.917 221.865C312.917 222.825 313.696 223.604 314.657 223.604H325.147C326.107 223.604 326.886 222.825 326.886 221.865C326.886 221.81 326.875 221.76 326.87 221.707H312.933Z" fill="#0F2B3A"/>
<path d="M340.166 212.927C340.25 219.362 358.914 224.57 381.93 224.57C386.129 224.57 390.181 224.395 394.003 224.072C400.25 221.639 406.053 217.974 410.976 212.926H340.166V212.927Z" fill="#D1CBB0"/>
<path d="M423.693 212.927H410.975C406.052 217.975 400.249 221.64 394.002 224.073C411.133 222.628 423.623 218.188 423.693 212.927Z" fill="#BCB69C"/>
<path d="M374.651 212.128C355.069 212.194 340.166 212.527 340.166 212.927C340.166 213.335 355.623 213.673 375.734 213.73C375.322 213.249 374.958 212.718 374.651 212.128Z" fill="#999999"/>
<path d="M423.26 212.927C423.26 212.479 404.66 212.116 381.713 212.116C379.305 212.116 376.948 212.12 374.651 212.127C374.958 212.716 375.322 213.248 375.734 213.729C377.689 213.734 379.683 213.738 381.713 213.738C404.661 213.739 423.26 213.375 423.26 212.927Z" fill="#BFBFBF"/>
<path d="M281.597 211.562C281.928 214.065 283.934 216.615 285.428 216.449C285.536 216.441 285.639 216.425 285.743 216.411C286.805 210.295 286.621 203.85 287.553 197.771C287.404 197.759 287.254 197.735 287.106 197.693C285.132 197.124 283.966 197.193 283.499 198.15C282.63 199.931 279.892 203.608 281.865 211.021C281.865 211.021 281.762 211.22 281.597 211.562Z" fill="#4E6327"/>
<path d="M291.157 210.92C291.14 210.647 291.107 210.404 291.055 210.153C290.783 208.832 293.127 204.391 292.008 200.38C291.462 198.422 291.025 197.979 289.351 197.7C288.895 197.624 288.231 197.827 287.553 197.772C286.621 203.851 286.805 210.296 285.743 216.412C288.365 216.004 289.769 213.517 291.157 210.92Z" fill="#415120"/>
<path d="M286.469 212.065C286.564 212.079 286.66 212.013 286.739 211.905C286.582 211.895 286.424 211.882 286.268 211.871C286.31 211.979 286.38 212.054 286.469 212.065Z" fill="#3C4009"/>
<path d="M286.658 210.921C286.479 210.9 286.292 211.137 286.239 211.452C286.213 211.611 286.226 211.759 286.268 211.87C286.424 211.882 286.582 211.895 286.739 211.904C286.808 211.81 286.864 211.682 286.888 211.535C286.939 211.219 286.838 210.945 286.658 210.921Z" fill="#3C4009"/>
<path d="M291.327 209.578H275.958C275.952 209.805 275.935 210.03 275.935 210.261C275.935 214.96 277.917 221.924 280.41 224.475H285.856C285.898 224.475 285.856 224.475 285.856 224.475C289.148 220.886 291.515 215.61 291.327 209.578Z" fill="#F5C2A7"/>
<path d="M295.714 210.261C295.714 210.03 295.697 209.805 295.691 209.578H291.327C291.515 215.61 289.147 220.886 285.855 224.475H291.598C294.268 221.961 295.714 215.152 295.714 210.261Z" fill="#E2B09A"/>
</svg>
