<svg width="121" height="444" viewBox="0 0 121 444" fill="none" xmlns="http://www.w3.org/2000/svg">
<path d="M60.7988 322.89L56.9163 438.82L57.6091 438.848L61.4915 322.918L60.7988 322.89Z" fill="white"/>
<path d="M121 440.688C121 442.519 119.677 444 118.043 444H2.95735C1.32604 444 0 442.519 0 440.688C0 438.858 1.32604 437.375 2.95735 437.375H118.043C119.677 437.375 121 438.858 121 440.688Z" fill="white"/>
<path d="M2.78245 438.923L2.11467 438.706L32.7693 322L33.4323 322.221L2.78245 438.923Z" fill="white"/>
<path d="M14.8646 438.902L14.1841 438.723L38.5679 322.791L39.2421 322.971L14.8646 438.902Z" fill="white"/>
<path d="M18.7664 438.9L18.0859 438.73L40.8305 324.162L41.5094 324.333L18.7664 438.9Z" fill="white"/>
<path d="M22.6078 438.891L21.9273 438.734L43.6161 322.799L44.2966 322.962L22.6078 438.891Z" fill="white"/>
<path d="M26.3617 438.888L25.6765 438.741L45.5718 324.17L46.2523 324.323L26.3617 438.888Z" fill="white"/>
<path d="M30.6292 438.104L29.9407 437.964L48.138 324.179L48.8233 324.314L30.6292 438.104Z" fill="white"/>
<path d="M51.2902 324.211L33.5192 437.934L34.2087 438.065L51.9797 324.342L51.2902 324.211Z" fill="white"/>
<path d="M37.9383 438.096L37.2514 437.973L53.5948 324.183L54.2817 324.307L37.9383 438.096Z" fill="white"/>
<path d="M42.2121 438.869L41.5205 438.762L55.7221 324.977L56.417 325.085L42.2121 438.869Z" fill="white"/>
<path d="M47.5719 438.853L46.8755 438.772L57.3932 324.993L58.0896 325.073L47.5719 438.853Z" fill="white"/>
<path d="M52.3434 440.296C52.1129 440.117 54.1878 399.596 55.0305 385.822C56.5664 360.826 58.635 329.891 59.4029 324.966L60.0914 325.101C58.5348 335.05 52.5295 437.866 52.8713 439.857L52.5788 439.921L52.3434 440.296Z" fill="white"/>
<path d="M10.974 438.131L10.2967 437.94L36.4835 322.787L37.1529 322.976L10.974 438.131Z" fill="white"/>
<path d="M6.50298 438.916L5.83044 438.709L34.2209 324.142L34.8903 324.351L6.50298 438.916Z" fill="white"/>
<path d="M119.377 439.316L88.7268 322.614L89.3962 322.391L120.046 439.098L119.377 439.316Z" fill="white"/>
<path d="M107.299 439.296L82.9202 323.366L83.5975 323.187L107.973 439.116L107.299 439.296Z" fill="white"/>
<path d="M103.396 439.291L80.6529 324.723L81.3302 324.554L104.073 439.123L103.396 439.291Z" fill="white"/>
<path d="M99.5529 439.288L77.8625 323.355L78.5478 323.196L100.237 439.125L99.5529 439.288Z" fill="white"/>
<path d="M95.7974 439.281L75.9084 324.712L76.5921 324.563L96.4843 439.133L95.7974 439.281Z" fill="white"/>
<path d="M91.5347 438.499L73.3327 324.705L74.0164 324.57L92.2167 438.357L91.5347 438.499Z" fill="white"/>
<path d="M87.7871 438.493L70.3769 324.705L71.0606 324.575L88.4756 438.36L87.7871 438.493Z" fill="white"/>
<path d="M68.5788 324.565L67.8909 324.685L84.2431 438.475L84.9309 438.355L68.5788 324.565Z" fill="white"/>
<path d="M79.9501 439.263L65.7501 325.478L66.437 325.371L80.6402 439.153L79.9501 439.263Z" fill="white"/>
<path d="M74.5919 439.247L64.0727 325.464L64.7643 325.383L75.2804 439.167L74.5919 439.247Z" fill="white"/>
<path d="M69.8173 440.688L69.4182 440.05L69.6185 440.369L69.2894 440.25C69.628 438.257 63.6259 335.441 62.0757 325.49L62.7562 325.359C63.5241 330.285 65.5975 361.219 67.1302 386.213C67.9761 399.987 70.0478 440.51 69.8173 440.688Z" fill="white"/>
<path d="M111.188 438.525L85.0078 323.371L85.6836 323.18L111.866 438.332L111.188 438.525Z" fill="white"/>
<path d="M115.661 439.31L87.272 324.742L87.9461 324.537L116.327 439.104L115.661 439.31Z" fill="white"/>
<path d="M92.2167 322H29.9407V333.146H92.2167V322Z" fill="white"/>
<path d="M62.5908 333.148H61.5557V437.377H62.5908V333.148Z" fill="white"/>
<path d="M60 0H62V322H60V0Z" fill="#232628"/>
</svg>
