<svg width="378" height="437" viewBox="0 0 378 437" fill="none" xmlns="http://www.w3.org/2000/svg">
<g opacity="0.2">
<g opacity="0.5">
<path opacity="0.5" d="M275.429 436.507H192.477L184.977 431.42V323.598H271.917L275.429 328.832V436.507Z" fill="#1B192B"/>
</g>
</g>
<path d="M269.839 321.746H184.998V431.662H269.839V321.746Z" fill="#3A3A3A"/>
<path d="M266.068 325.547H188.766V427.392H266.068V325.547Z" fill="white"/>
<path d="M188.766 427.392L184.998 431.662V321.746L188.766 325.547V427.392Z" fill="#161616"/>
<path d="M266.071 427.392L269.839 431.662V321.747L266.071 325.547V427.392Z" fill="#686868"/>
<g opacity="0.2">
<g opacity="0.5">
<path opacity="0.5" d="M122.843 415.215H72.01L67.414 412.098V346.025H120.691L122.843 349.232V415.215Z" fill="#1B192B"/>
</g>
</g>
<path d="M119.417 344.89H67.427V412.246H119.417V344.89Z" fill="#3A3A3A"/>
<path d="M117.106 347.219H69.736V409.63H117.106V347.219Z" fill="white"/>
<path d="M69.736 409.63L67.427 412.246V344.89L69.736 347.219V409.63Z" fill="#161616"/>
<path d="M117.108 409.63L119.418 412.246V344.891L117.108 347.219V409.63Z" fill="#686868"/>
<g opacity="0.2">
<g opacity="0.5">
<path opacity="0.5" d="M377.914 415.215H327.081L322.485 412.098V346.025H375.762L377.914 349.232V415.215Z" fill="#1B192B"/>
</g>
</g>
<path d="M374.488 344.89H322.498V412.246H374.488V344.89Z" fill="#3A3A3A"/>
<path d="M372.177 347.219H324.807V409.63H372.177V347.219Z" fill="white"/>
<path d="M324.807 409.63L322.498 412.246V344.89L324.807 347.219V409.63Z" fill="#161616"/>
<path d="M372.179 409.63L374.488 412.246V344.891L372.179 347.219V409.63Z" fill="#686868"/>
<path d="M31 7.34392V306H34V0C32.994 2.39897 31.996 4.86757 31 7.34392Z" fill="#3A3A3A"/>
<path d="M32.2338 306.223C32.2338 306.223 26.3182 306.1 23.414 312.415H41.0535C38.1494 306.101 32.2338 306.223 32.2338 306.223Z" fill="#D8D6BC"/>
<path d="M23.4139 312.415C22.6333 314.112 22.0684 316.266 21.8964 319.02H32.2337H32.4781V312.415H23.4139Z" fill="#E8E7C8"/>
<path d="M41.0535 312.415H32.4781V319.02H42.5723C42.399 316.268 41.8341 314.112 41.0535 312.415Z" fill="#BCBBA2"/>
<path d="M46.2683 347.337C44.4465 335.789 33.2849 330.7 32.5791 319.02H32.2325H21.8952C21.8952 319.02 11.165 338.492 7.7309 341.103C2.03352 345.438 -1.05895 356.582 1.21926 371.856H32.2325H47.5714C47.7185 363.683 47.8806 355.51 46.2683 347.337Z" fill="#3D513A"/>
<path d="M56.7341 341.103C53.3 338.492 42.5698 319.02 42.5698 319.02H32.5792C33.2849 330.7 44.4453 335.789 46.2683 347.337C47.8794 355.51 47.7186 363.683 47.5714 371.856H63.2457C65.5252 356.582 62.4327 345.438 56.7341 341.103Z" fill="#2F3F2C"/>
<path d="M33.0885 371C16.4713 371 3 371.447 3 372.001C3 372.553 16.4713 373 33.0885 373C38.3375 373 43.2701 372.956 47.5666 372.878C47.8298 372.44 47.9976 371.886 48 371.132C43.6033 371.047 38.5161 371 33.0885 371Z" fill="#D8D6BC"/>
<path d="M63 371.995C63 371.569 56.7354 371.197 47.4442 371C47.4417 371.863 47.271 372.498 47 373C56.5362 372.804 63 372.428 63 371.995Z" fill="#BCBBA2"/>
<path d="M89.941 375.141C89.817 375.116 89.693 375.092 89.594 375.067C89.569 375.067 89.569 375.092 89.545 375.092C88.654 375.141 87.713 375.166 86.822 375.117C86.673 375.092 86.649 374.968 86.772 374.919H86.797C86.797 374.894 86.822 374.894 86.846 374.87C86.995 374.722 87.019 374.573 87.044 374.4C87.069 374.351 87.093 374.326 87.093 374.276C86.994 373.83 87.044 373.36 87.019 372.964C87.019 371.701 86.747 370.464 86.722 369.201C86.697 368.013 86.598 366.824 86.524 365.636C86.326 365.661 86.128 365.661 85.98 365.661C85.609 365.661 85.262 365.661 84.866 365.611C84.792 366.205 84.718 366.774 84.643 367.344C84.396 369.349 84.396 371.701 83.752 373.756C83.653 374.177 83.529 374.474 83.777 374.796C83.901 374.796 84 374.796 84.124 374.821C84.421 374.846 84.322 375.168 84.05 375.192C83.703 375.217 82.837 375.093 82.515 375.241C82.317 375.34 82.069 375.093 82.243 374.994C82.391 374.92 82.565 374.87 82.738 374.821C83.406 373.286 83.58 370.043 83.951 366.528C84.124 364.77 84.446 363.013 84.619 361.255C84.668 360.586 84.718 359.671 84.05 359.374C83.951 359.349 83.926 359.275 83.951 359.225C83.951 359.151 84 359.077 84.075 359.101C84.1 359.101 84.1 359.101 84.1 359.101C84.768 359.002 85.363 359.002 86.031 359.002C86.353 359.002 86.674 359.002 86.996 359.027C87.516 359.027 88.036 359.027 88.555 359.076C88.753 359.101 88.803 359.348 88.629 359.423C88.629 359.448 88.604 359.448 88.58 359.448C88.555 359.473 88.555 359.473 88.531 359.473C87.887 359.646 87.887 360.513 87.937 361.181C87.962 361.305 87.962 361.404 87.986 361.528C87.986 361.528 87.986 361.553 87.986 361.577C87.986 361.577 87.986 361.577 87.986 361.602C88.184 363.434 88.184 365.29 88.357 367.122C88.505 368.533 88.654 369.944 88.852 371.355C88.976 372.32 88.753 374.301 90.015 374.87C90.164 374.943 90.139 375.141 89.941 375.141ZM86.476 364.819C86.451 364.546 86.278 360.833 86.402 359.62C86.229 359.62 86.055 359.595 85.882 359.595C85.734 359.57 85.659 359.595 85.486 359.595C85.362 361.328 85.164 363.061 84.966 364.794C85.164 364.769 85.387 364.769 85.585 364.769C85.906 364.769 86.154 364.769 86.476 364.819Z" fill="#B2B1B1"/>
<path d="M96.03 370.165C95.857 371.502 95.708 373.383 94.619 374.349C93.901 374.968 93.035 375.166 92.119 375.191H92.094C91.698 375.24 91.277 375.315 90.881 375.24C90.46 375.24 90.064 375.191 89.743 375.017C89.619 374.968 89.644 374.794 89.768 374.77C89.793 374.72 89.817 374.671 89.842 374.646C90.139 374.423 90.337 374.176 90.387 373.804C90.412 373.68 90.436 373.507 90.461 373.358C90.461 370.684 90.585 368.011 90.609 365.337C90.634 363.283 90.584 361.525 90.609 360.238C90.609 359.693 90.386 359.669 90.089 359.545C89.916 359.471 89.941 359.223 90.139 359.198C91.599 359.025 93.555 358.629 94.446 359.619C95.436 360.758 94.793 363.332 93.456 364.421C94.05 364.495 94.595 364.718 95.09 365.238C96.104 366.328 96.179 368.804 96.03 370.165ZM94.347 366.972C94.347 366.972 94.322 366.972 94.322 366.947C93.926 365.734 93.282 364.694 91.772 364.868C91.772 365.314 91.772 366.304 91.747 366.774C91.648 369.398 91.648 371.997 91.599 374.597C91.599 374.597 91.624 374.597 91.648 374.597C91.821 374.597 91.995 374.597 92.168 374.572C93.01 374.349 93.703 373.904 94.124 373.013C94.892 371.378 94.867 368.581 94.347 366.972ZM91.773 364.398C92.887 364.027 93.407 362.467 93.407 361.625C93.457 359.422 92.838 359.645 91.996 359.645C92.144 360.362 91.773 364.299 91.773 364.398Z" fill="#B2B1B1"/>
<path d="M104.075 364.62C103.778 364.868 103.852 364.397 103.852 364.125C103.877 362.466 103.704 360.486 102.589 359.892C102.168 359.669 101.747 359.694 101.574 359.768C100.287 360.337 99.42 365.338 99.396 367.467C99.396 368.68 99.247 374.794 101.302 374.794C102.045 374.794 102.961 373.977 103.159 373.111C103.184 372.963 103.283 372.938 103.431 372.938C103.48 372.938 103.555 372.987 103.58 373.037C103.927 373.879 102.615 375.488 101.179 375.661C98.481 375.983 96.971 371.378 97.194 367.467C97.367 363.878 98.135 358.679 102.219 358.679C102.764 358.679 103.358 358.852 103.828 359.323C104.15 359.323 104.175 358.63 104.274 358.58C104.373 358.506 104.472 358.456 104.522 358.58C104.743 359.174 104.768 364.026 104.075 364.62Z" fill="#B2B1B1"/>
<path d="M89.061 386.814C89.16 390.428 88.64 394.414 84.036 394.414C83.714 394.414 83.17 394.439 82.873 394.364C82.824 394.364 82.799 394.315 82.799 394.265C82.774 394.24 82.799 394.24 82.799 394.216C82.799 394.216 82.799 394.216 82.774 394.216C82.749 394.191 82.749 394.117 82.799 394.092C82.799 394.092 82.799 394.092 82.799 394.067C82.799 394.067 82.799 394.067 82.799 394.042C82.799 394.017 82.824 393.993 82.848 393.993C82.848 393.993 82.848 393.993 82.848 393.968C82.947 393.943 83.046 393.918 83.145 393.918C83.269 393.819 83.343 393.695 83.392 393.472C83.442 393.2 83.491 392.952 83.516 392.68C83.466 391.962 83.466 380.501 83.466 380.476C83.466 379.164 83.392 378.545 82.773 378.545C82.724 378.545 82.724 378.496 82.724 378.446C82.724 378.446 82.724 378.421 82.749 378.421C82.749 378.396 82.774 378.396 82.798 378.371C82.823 378.371 84.679 378.222 84.704 378.222C85.892 378.123 87.105 378.222 88.021 379.064C89.655 380.576 88.987 384.66 89.061 386.814ZM87.551 385.081C87.551 381.244 87.675 378.62 84.754 378.942C84.63 381.912 84.903 388.002 84.803 390.255C84.754 391.295 84.877 392.359 84.853 393.374C84.878 393.448 84.902 393.498 84.927 393.547C87.452 393.225 87.551 391.493 87.551 385.081Z" fill="#B2B1B1"/>
<path d="M96.239 394.067C96.239 394.612 92.179 394.389 90.793 394.389C90.719 394.389 90.669 394.216 90.694 394.191C90.941 393.919 91.065 393.597 91.14 393.275C91.239 390.75 91.313 388.72 91.214 385.799C91.189 385.18 91.164 384.536 91.14 383.893C91.041 383.918 90.917 383.893 90.818 383.893C90.793 383.893 90.744 383.893 90.694 383.868C90.62 383.868 90.545 383.843 90.471 383.843C90.397 383.818 90.372 383.719 90.422 383.67C90.422 383.645 90.422 383.621 90.447 383.621C90.62 383.448 90.868 383.349 91.115 383.274C91.09 382.655 91.09 382.061 91.115 381.442C91.115 381.219 91.14 381.021 91.14 380.823C91.14 380.798 91.14 380.773 91.14 380.773C91.066 380.055 91.066 379.387 90.818 378.719C90.744 378.645 90.669 378.57 90.595 378.521C90.545 378.521 90.521 378.521 90.496 378.496C90.422 378.496 90.422 378.323 90.496 378.323C91.387 378.199 93.095 378.199 93.987 378.199C94.111 378.199 95.893 378.15 96.289 378.174C96.338 378.174 96.413 378.248 96.388 378.298C96.041 379.164 96.19 379.684 96.141 380.031C96.166 380.501 95.992 380.576 95.869 380.229C95.696 379.783 95.547 379.338 95.102 379.115C94.533 378.818 93.27 379.041 92.404 378.942C92.404 379.635 92.453 380.304 92.453 380.996C92.453 381.219 92.453 381.442 92.478 381.665C92.503 381.912 92.503 382.135 92.527 382.383C92.527 382.631 92.527 382.853 92.552 383.101C93.171 383.052 94.26 382.903 94.507 382.383C94.557 382.284 94.705 382.309 94.705 382.408C94.73 382.433 94.656 384.19 94.755 384.661C94.78 384.809 94.557 384.859 94.532 384.735C94.532 384.661 94.507 384.562 94.507 384.488C94.334 384.092 94.334 383.919 93.839 383.795C93.79 383.795 92.923 383.795 92.849 383.77C92.75 383.77 92.651 383.795 92.552 383.795C92.651 391.271 92.626 393.499 92.626 393.499C92.973 393.573 94.656 393.821 95.126 393.524C95.126 392.385 95.473 389.959 96.488 389.415C96.587 389.39 96.711 389.39 96.686 389.465C96.263 390.478 96.263 391.79 96.239 394.067Z" fill="#B2B1B1"/>
<path d="M102.451 378.323C102.104 379.214 102.278 379.709 102.228 380.056C102.253 380.526 101.782 380.601 101.683 380.254C101.51 379.808 101.361 379.363 100.915 379.14C100.296 378.818 99.108 378.917 98.242 378.942C98.242 378.942 98.242 380.427 98.391 383.15C99.109 383.101 100.297 383.002 100.594 382.408C100.619 382.309 100.767 382.334 100.792 382.433C100.792 382.458 100.743 384.215 100.841 384.71C100.866 384.834 100.643 384.908 100.618 384.759C100.544 384.289 100.346 383.992 99.653 383.818C99.604 383.818 99.01 383.818 98.935 383.793C98.762 383.818 98.588 383.818 98.415 383.818C98.44 384.189 98.465 384.56 98.465 384.932C98.564 388.373 98.415 393.175 98.415 393.175C98.539 393.522 98.712 393.819 99.034 394.066C99.183 394.165 99.183 394.338 99.009 394.338C98.365 394.412 97.549 394.412 96.88 394.412C96.806 394.412 96.756 394.239 96.781 394.214C97.029 393.966 97.152 393.645 97.227 393.298C97.499 389.164 97.524 390.847 97.301 385.822C97.276 385.203 97.227 384.559 97.202 383.941C97.103 383.941 97.004 383.941 96.905 383.916C96.856 383.916 96.831 383.916 96.781 383.916C96.707 383.891 96.633 383.891 96.558 383.867C96.459 383.842 96.459 383.743 96.509 383.694C96.509 383.669 96.509 383.669 96.534 383.645C96.707 383.472 96.93 383.373 97.203 383.298C97.178 382.704 97.178 382.085 97.203 381.491C97.228 380.352 97.178 379.733 97.129 379.04C97.03 378.817 96.857 378.693 96.659 378.545C96.634 378.545 96.61 378.545 96.585 378.545C96.486 378.52 96.486 378.372 96.585 378.347C97.476 378.223 98.912 378.248 99.803 378.223C99.927 378.223 101.981 378.173 102.377 378.198C102.426 378.224 102.476 378.274 102.451 378.323Z" fill="#B2B1B1"/>
<path d="M361.81 361.059C361.091 362.946 361.45 364.653 361.316 365.371C361.405 366.404 360.418 366.539 360.148 365.82C359.788 364.876 359.429 363.305 358.486 362.81C357.138 362.136 353.589 362.361 351.747 362.406C351.747 362.406 351.658 363.439 351.478 366.853C351.388 368.784 351.163 370.716 351.253 372.693C352.196 372.693 353.005 372.693 353.814 372.288C354.398 371.974 354.803 371.57 355.027 370.941C355.162 370.536 355.251 370.132 355.386 369.728C355.476 369.458 355.567 369.188 355.926 369.234C356.24 369.324 356.331 369.593 356.331 369.908C356.331 370.357 356.331 370.851 356.331 371.345C356.376 372.782 356.42 374.265 356.42 375.702C356.465 375.927 356.465 376.151 356.465 376.331C356.42 376.645 356.331 376.87 356.017 376.87C355.702 376.915 355.522 376.735 355.433 376.466C355.387 376.241 355.343 376.017 355.298 375.792C355.028 374.624 354.624 374.265 353.411 374.085C352.738 373.995 352.019 373.906 351.3 373.995C351.3 374.174 351.255 374.354 351.255 374.534C351.255 375.522 351.3 376.466 351.255 377.409C351.21 380.598 351.076 383.788 351.031 386.977C351.031 388.953 351.076 390.93 351.12 392.861C351.165 393.715 351.749 394.254 352.423 394.658C352.602 394.748 352.827 394.793 352.827 395.062C352.827 395.332 352.603 395.421 352.333 395.421C351.704 395.466 351.076 395.511 350.401 395.511C349.099 395.556 347.84 395.556 346.538 395.556C346.359 395.556 346.224 395.421 346.089 395.331C346.179 395.196 346.224 394.972 346.313 394.882C346.762 394.613 347.167 394.298 347.437 393.804C347.661 393.4 347.707 392.951 347.751 392.546C347.796 390.57 347.84 388.593 347.886 386.617C347.931 384.91 347.975 383.203 347.975 381.496C348.021 379.026 348.021 376.555 348.065 373.994C347.571 373.994 347.122 373.994 346.717 373.994C346.493 373.994 346.223 373.994 345.953 373.949C345.683 373.904 345.413 373.635 345.413 373.32C345.459 372.961 345.728 372.916 345.997 372.871C346.671 372.826 347.3 372.781 347.929 372.736C347.974 372.646 348.019 372.557 348.019 372.511C348.064 370.041 348.064 367.57 348.108 365.099C348.108 364.74 348.063 363.842 348.019 363.347C348.019 363.168 348.019 363.033 347.973 362.898C347.928 362.673 347.794 362.539 347.569 362.494C343.796 361.955 341.459 363.212 340.83 365.953C340.292 368.468 343.032 369.951 345.187 368.873C345.142 369.996 344.647 372.332 341.998 371.523C340.965 371.164 340.291 370.355 339.931 369.367C339.078 366.941 339.482 364.785 341.144 362.898C342.087 361.82 343.839 361.102 346.759 361.102C348.691 360.832 354.082 360.877 356.013 360.832C356.327 360.832 360.729 360.742 361.582 360.787C361.72 360.835 361.854 360.924 361.81 361.059Z" fill="#E1DACD"/>
<g opacity="0.69">
<path opacity="0.69" d="M232.801 350.264C232.65 350.34 232.499 350.415 232.347 350.566C231.515 352.609 231.137 358.282 231.137 361.838C231.288 376.211 230.532 389.45 230.532 389.45C230.532 391.114 229.927 398.453 232.347 399.133C233.028 399.285 232.726 400.041 232.12 400.344C230.91 400.874 224.177 402.462 223.118 400.874C223.118 400.798 223.118 400.647 223.194 400.571C223.345 400.495 223.496 400.42 223.724 400.42C226.145 398.529 225.615 395.578 225.766 392.855L226.749 361.385C222.74 369.555 218.277 380.524 216.083 384.684C215.932 384.987 215.478 385.063 215.175 384.76C215.099 384.608 205.568 362.141 205.568 362.065C205.644 373.866 205.492 391.493 204.736 397.318C204.736 397.697 204.736 398.075 204.812 398.377C205.115 399.209 205.72 399.361 206.476 399.588C206.703 399.739 206.855 399.966 206.779 400.193V400.269C206.476 401.177 203.148 401.101 200.878 401.252C200.576 401.252 200.198 400.874 200.273 400.647C200.273 400.647 200.273 400.571 200.349 400.496L200.425 400.42C200.425 400.344 200.501 400.344 200.576 400.269C201.03 399.512 201.635 398.832 201.938 397.999C202.695 395.654 202.846 358.51 202.24 353.895C202.089 352.458 201.181 352.382 200.349 351.853C200.273 351.777 200.273 351.702 200.273 351.626C200.5 351.248 202.542 350.794 204.434 350.794C207.384 350.794 216.916 373.716 217.294 374.472C220.698 367.361 227.204 351.55 227.431 350.642C227.507 350.491 227.582 350.34 227.81 350.264C227.81 350.264 227.81 350.188 227.886 350.188C228.113 350.112 232.198 349.809 232.425 349.809C232.725 349.734 233.178 350.188 232.801 350.264Z" fill="#E1DACD"/>
<path opacity="0.69" d="M248.95 350.255C248.799 350.331 248.648 350.406 248.496 350.557C247.664 352.6 247.286 358.273 247.286 361.829C247.437 376.202 246.681 389.441 246.681 389.441C246.681 391.105 246.076 398.444 248.496 399.124C249.177 399.276 248.875 400.032 248.269 400.335C247.059 400.865 240.326 402.453 239.267 400.865C239.267 400.789 239.267 400.638 239.343 400.562C239.494 400.486 239.645 400.411 239.873 400.411C242.294 398.52 241.764 395.569 241.915 392.846L242.898 361.376C238.889 369.546 234.426 380.515 232.232 384.675C232.081 384.978 231.627 385.054 231.324 384.751C231.248 384.599 221.717 362.132 221.717 362.056C221.793 373.857 221.641 391.484 220.885 397.309C220.885 397.688 220.885 398.066 220.961 398.368C221.264 399.2 221.869 399.352 222.625 399.579C222.852 399.73 223.004 399.957 222.928 400.184V400.26C222.625 401.168 219.297 401.092 217.027 401.243C216.725 401.243 216.347 400.865 216.422 400.638C216.422 400.638 216.422 400.562 216.498 400.487L216.574 400.411C216.574 400.335 216.65 400.335 216.725 400.26C217.179 399.503 217.784 398.823 218.087 397.99C218.844 395.645 218.995 358.501 218.389 353.886C218.238 352.449 217.33 352.373 216.498 351.844C216.422 351.768 216.422 351.693 216.422 351.617C216.649 351.239 218.691 350.785 220.583 350.785C223.533 350.785 233.065 373.707 233.443 374.463C236.847 367.352 243.353 351.541 243.58 350.633C243.656 350.482 243.731 350.331 243.959 350.255C243.959 350.255 243.959 350.179 244.035 350.179C244.262 350.103 248.347 349.8 248.574 349.8C248.875 349.726 249.328 350.18 248.95 350.255Z" fill="#E1DACD"/>
</g>
</svg>
