<svg width="384" height="563" viewBox="0 0 384 563" fill="none" xmlns="http://www.w3.org/2000/svg">
      <path d="M83.6682 0H81.0244V109.561C81.9043 109.132 82.7883 108.701 83.6682 108.272V0Z" fill="#6D8480" />
      <path
        d="M81.0223 109.561V231.844H83.6662V107.676C82.7862 108.305 81.9043 108.933 81.0223 109.561Z"
        fill="#5F7571"
      />
      <path d="M96.0073 241.492L83.6682 229.525H81.0223L69.2738 241.734V241.969H96.0073V241.492Z" fill="#5F7571" />
      <path d="M96.0094 241.969H69.2738V274.459H96.0094V241.969Z" fill="#6D8480" />
      <path
        d="M155.785 310.362L95.8586 274.46H91.678H87.66H82.7882H82.4949H69.4225L9.49255 310.362C-3.41315 317.754 -0.0421293 319.946 1.85636 320.862L82.4949 321.045H82.6396H82.7882L132.864 320.931L158.31 320.874L163.425 320.862C165.323 319.946 169.359 317.754 155.785 310.362Z"
        fill="#7B9491"
      />
      <path d="M87.66 274.46L130.853 321.046L154.627 320.883L91.678 274.46H87.66Z" fill="#90A5A2" />
      <path d="M91.3626 241.969H88.2245V274.459H91.3626V241.969Z" fill="#90A5A2" />
      <path
        opacity="0.1"
        d="M163.925 562.854H30.0291C27.6229 562.854 25.676 561.145 25.676 559.033C25.676 556.921 27.6229 555.212 30.0291 555.212H163.925C166.331 555.212 168.278 556.921 168.278 559.033C168.278 561.145 166.331 562.854 163.925 562.854Z"
        fill="#010101"
      />
      <path
        d="M161.256 559.884H27.3531C24.9469 559.884 23 558.175 23 556.063C23 553.951 24.9469 552.243 27.3531 552.243H161.249C163.655 552.243 165.602 553.951 165.602 556.063C165.609 558.175 163.655 559.884 161.256 559.884Z"
        fill="#EDA44C"
        fillOpacity="0.61"
      />
      <path
        d="M85.9702 475H32.6832V550.892H85.9702V475Z"
        fill="#F4F1ED"
        stroke="#EDA44C"
        strokeOpacity="0.61"
        strokeWidth="4"
        strokeMiterlimit="10"
        strokeLinecap="round"
      />
      <path
        d="M155.926 490.866H113.562V551.199H155.926V490.866Z"
        fill="#F4F1ED"
        stroke="#EDA44C"
        strokeOpacity="0.61"
        strokeWidth="4"
        strokeMiterlimit="10"
        strokeLinecap="round"
      />
      <path
        d="M109.42 513.688H80.1223V551.334H109.42V513.688Z"
        fill="#F4F1ED"
        stroke="#EDA44C"
        strokeOpacity="0.61"
        strokeWidth="4"
        strokeMiterlimit="10"
        strokeLinecap="round"
      />
      <path
        opacity="0.1"
        d="M379.259 452.625H138.007C135.565 452.625 133.587 450.558 133.587 448.005V442.649C133.587 440.096 135.565 438.029 138.007 438.029H379.259C381.702 438.029 383.68 440.096 383.68 442.649V448.005C383.675 450.558 381.697 452.625 379.259 452.625Z"
        fill="#010101"
      />
      <path
        opacity="0.1"
        d="M357.845 395.086V386.159C357.845 385.03 356.973 384.102 355.887 384.102H342.177H341.127H339.939H338.888H337.69H336.64H335.314H334.264H270.138C269.047 384.102 268.17 385.024 268.17 386.159V395.086C268.17 396.136 268.925 396.999 269.909 397.116C268.925 397.234 268.17 398.097 268.17 399.147V408.073C268.17 409.096 268.884 409.938 269.827 410.098C268.884 410.253 268.17 411.1 268.17 412.123V421.05C268.17 421.908 268.67 422.643 269.389 422.947C268.675 423.256 268.17 423.991 268.17 424.844V433.771C268.17 434.9 269.042 435.828 270.138 435.828H334.264H335.314H336.64H337.69H338.888H339.939H341.127H342.177H355.887C356.968 435.828 357.845 434.906 357.845 433.771V424.844C357.845 423.986 357.346 423.251 356.632 422.947C357.346 422.638 357.845 421.902 357.845 421.05V412.118C357.845 411.095 357.131 410.253 356.198 410.093C357.131 409.938 357.845 409.091 357.845 408.068V399.141C357.845 398.092 357.091 397.228 356.117 397.111C357.091 396.994 357.845 396.136 357.845 395.086Z"
        fill="#010101"
      />
      <path
        d="M350.636 393.839H264.882C263.791 393.839 262.914 392.917 262.914 391.782V382.861C262.914 381.731 263.785 380.804 264.882 380.804H350.636C351.717 380.804 352.594 381.726 352.594 382.861V391.787C352.588 392.917 351.717 393.839 350.636 393.839Z"
        fill="#C2A446"
        fillOpacity="0.6"
      />
      <path d="M336.92 380.804H335.87V393.839H336.92V380.804Z" fill="#3E6A69" />
      <path d="M334.682 380.804H333.632V393.839H334.682V380.804Z" fill="#3E6A69" />
      <path d="M332.428 380.804H331.378V393.839H332.428V380.804Z" fill="#3E6A69" />
      <path d="M330.052 380.804H329.002V393.839H330.052V380.804Z" fill="#3E6A69" />
      <path
        d="M350.636 406.826H264.882C263.791 406.826 262.914 405.904 262.914 404.769V395.843C262.914 394.713 263.785 393.786 264.882 393.786H350.636C351.717 393.786 352.594 394.708 352.594 395.843V404.769C352.588 405.904 351.717 406.826 350.636 406.826Z"
        fill="#1F7E5E"
        fillOpacity="0.6"
      />
      <path d="M336.92 393.791H335.87V406.826H336.92V393.791Z" fill="#C2A446" />
      <path d="M334.682 393.791H333.632V406.826H334.682V393.791Z" fill="#C2A446" />
      <path d="M332.428 393.791H331.378V406.826H332.428V393.791Z" fill="#C2A446" />
      <path d="M330.052 393.791H329.002V406.826H330.052V393.791Z" fill="#C2A446" />
      <path
        d="M350.636 419.797H264.882C263.791 419.797 262.914 418.875 262.914 417.74V408.814C262.914 407.684 263.785 406.757 264.882 406.757H350.636C351.717 406.757 352.594 407.679 352.594 408.814V417.74C352.588 418.875 351.717 419.797 350.636 419.797Z"
        fill="white"
      />
      <path d="M336.92 406.762H335.87V419.797H336.92V406.762Z" fill="#C2A446" />
      <path d="M334.682 406.762H333.632V419.797H334.682V406.762Z" fill="#C2A446" />
      <path d="M332.428 406.762H331.378V419.797H332.428V406.762Z" fill="#C2A446" />
      <path d="M330.052 406.762H329.002V419.797H330.052V406.762Z" fill="#C2A446" />
      <path
        d="M350.636 432.524H264.882C263.791 432.524 262.914 431.602 262.914 430.466V421.54C262.914 420.41 263.785 419.483 264.882 419.483H350.636C351.717 419.483 352.594 420.405 352.594 421.54V430.466C352.588 431.596 351.717 432.524 350.636 432.524Z"
        fill="#CA1515"
        fillOpacity="0.6"
      />
      <path d="M336.92 419.488H335.87V432.524H336.92V419.488Z" fill="#8F765D" />
      <path d="M334.682 419.488H333.632V432.524H334.682V419.488Z" fill="#8F765D" />
      <path d="M332.428 419.488H331.378V432.524H332.428V419.488Z" fill="#8F765D" />
      <path d="M330.052 419.488H329.002V432.524H330.052V419.488Z" fill="#8F765D" />
      <path
        d="M374.574 446.95H133.321C130.879 446.95 128.901 444.882 128.901 442.329V436.973C128.901 434.421 130.879 432.353 133.321 432.353H374.574C377.016 432.353 378.994 434.421 378.994 436.973V442.329C378.994 444.882 377.016 446.95 374.574 446.95Z"
        fill="#EDA44C"
        fillOpacity="0.61"
      />
      <path
        d="M174.406 408.384H135.574C135.574 408.384 135.138 414.865 136.01 419.476C136.871 424.087 138.268 428.542 144.55 430.742C150.832 432.942 159.718 432.713 165.274 431.118C170.829 429.523 173.489 424.591 174.104 418.715C174.596 413.957 174.406 408.384 174.406 408.384Z"
        fill="#D6CCC1"
      />
      <path
        d="M154.99 411.739C165.509 411.739 174.037 410.073 174.037 408.017C174.037 405.962 165.509 404.295 154.99 404.295C144.471 404.295 135.943 405.962 135.943 408.017C135.943 410.073 144.471 411.739 154.99 411.739Z"
        fill="#282423"
        stroke="#75665C"
        strokeWidth="0.9132"
        strokeMiterlimit="10"
        strokeLinecap="round"
        strokeLinejoin="round"
      />
      <path
        d="M152.229 409.805C151.145 409.53 152.81 408.714 154.442 407.403C156.063 406.092 159.618 403.14 163.273 400.299C166.928 397.457 169.331 395.541 170.773 394.166C172.215 392.791 175.982 388.666 177.703 386.64C179.425 384.614 175.915 390.627 174.607 392.433C173.299 394.239 169.041 399.721 167.442 401.344C165.844 402.966 163.418 405.496 161.507 407.091C159.584 408.686 155.046 410.52 152.229 409.805Z"
        fill="#2C9469"
      />
      <path
        d="M153.392 400.94C153.816 398.648 154.263 396.247 155.214 392.809C156.32 388.84 159.651 385.008 160.333 383.615C161.026 382.221 164.469 376.62 164.469 376.62C164.469 376.62 162.334 384.21 161.808 386.282C161.283 388.363 161.127 398.3 159.864 402.077C158.612 405.854 155.325 408.265 155.325 408.265C155.325 408.265 153.38 409.594 152.978 407.385C152.587 405.166 152.967 403.232 153.392 400.94Z"
        fill="#2C9469"
      />
      <path
        d="M145.981 382.249C145.981 382.249 143.041 388.776 144.986 394.707C146.931 400.629 151.815 407.284 151.815 407.284C151.815 407.284 154.185 405.625 153.85 401.866C153.526 398.108 153.079 395.22 150.284 391.911C147.49 388.611 146.674 386.2 146.528 384.843C146.383 383.477 145.981 382.249 145.981 382.249Z"
        fill="#45C48A"
      />
      <path
        d="M149.278 374.869C149.278 374.869 152.173 381.708 152.889 384C153.604 386.291 154.185 390.49 154.431 394.395C154.677 398.3 155.359 405.203 153.917 406.065C152.475 406.926 149.759 403.104 148.73 397.888C147.702 392.662 148.104 390.114 148.663 386.786C149.222 383.468 149.692 381.799 149.412 379.599C149.144 377.399 149.278 374.869 149.278 374.869Z"
        fill="#2C9469"
      />
      <path
        d="M156.991 381.616C156.991 381.616 157.706 384.843 157.505 388.345C157.304 391.847 158.746 407.522 153.123 406.825C150.262 406.468 149.401 402.453 150.988 396.118C152.576 389.775 153.637 389.353 154.699 386.594C155.75 383.835 156.991 381.616 156.991 381.616Z"
        fill="#45C48A"
      />
      <path
        d="M154.498 382.322C154.498 382.322 153.693 391.892 153.526 394.569C153.369 397.246 153.794 408.485 151.838 407.018C149.882 405.551 149.681 393.561 149.681 393.561L154.498 382.322Z"
        fill="#45C48A"
      />
      <path
        d="M138.648 377.408C138.648 377.408 140.682 383.083 142.627 388.024C144.572 392.965 145.88 398.419 145.88 398.419C145.88 398.419 151.033 405.872 152.24 406.34C153.447 406.807 156.253 401.719 151.312 394.129C146.361 386.539 143.477 384.421 142.135 382.597C140.805 380.754 138.95 378.472 138.648 377.408Z"
        fill="#2C9469"
      />
      <path
        d="M150.865 406.734C150.72 406.413 149.781 403.947 151.827 401.325C153.872 398.703 160.232 395.064 162.401 392.507C164.569 389.949 167.967 388.693 169.611 386.713C170.885 385.164 172.472 382.973 172.796 382.175C172.304 384.623 171.645 387.621 168.828 390.279C166.011 392.937 163.988 396.384 161.451 399.785C158.925 403.186 155.851 407.33 154.017 408.301C152.173 409.282 150.865 406.734 150.865 406.734Z"
        fill="#2C9469"
      />
      <path
        d="M128.901 380.214C133.026 385.384 135.976 390.077 141.89 397.493C147.814 404.91 149.658 409.163 150.944 409.484C152.229 409.805 152.24 406.33 152.24 406.33C152.24 406.33 149.524 400.253 144.997 395.037C140.202 389.5 135.697 386.924 128.901 380.214Z"
        fill="#45C48A"
      />
      <path
        d="M148.697 408.815C149.938 409.438 140.481 404.983 135.473 398.273C130.477 391.562 129.471 383.752 129.471 383.752C129.471 383.752 133.372 392.076 137.117 395.358C140.861 398.639 150.239 404.754 151.514 405.588C152.799 406.422 154.588 409.126 153.626 409.768C152.654 410.41 147.445 408.191 148.697 408.815Z"
        fill="#2C9469"
      />
      <g clipPath="url(#clip0)">
        <path d="M198.661 401.552L200.325 409.203L192.065 413.388L198.661 401.552Z" fill="#E6E6E6" />
        <path d="M196.709 427.343L205.974 421.739L200.325 409.203L192.065 413.388L196.709 427.343Z" fill="#C2C2C2" />
        <path d="M218.519 414.125L205.974 421.739L200.325 409.203L218.519 414.125Z" fill="#E6E6E6" />
        <path d="M218.588 433.438L205.974 421.739L196.709 427.343L218.588 433.438Z" fill="#ADA7A1" />
        <path d="M238.527 401.552L236.863 409.203L245.123 413.388L238.527 401.552Z" fill="#E6E6E6" />
        <path d="M240.479 427.343L231.215 421.739L236.863 409.203L245.123 413.388L240.479 427.343Z" fill="#C2C2C2" />
        <path d="M218.588 433.438L231.215 421.739L240.479 427.343L218.588 433.438Z" fill="#ADA7A1" />
        <path d="M218.519 414.125L231.215 421.739L218.588 433.438L205.974 421.739L218.519 414.125Z" fill="#C2C2C2" />
        <path d="M236.863 409.203L231.215 421.739L218.519 414.125L236.863 409.203Z" fill="#E6E6E6" />
        <path
          d="M199.77 402.98L200.717 408.639L218.623 413.315L236.078 408.493L237.557 401.898L217.999 397.977L200.267 401.916L199.77 402.98Z"
          fill="#282423"
        />
        <path
          d="M217.953 397.212L198.661 401.552L200.325 409.203L218.519 414.125L236.863 409.203L238.527 401.552L217.953 397.212ZM235.258 408.266L218.658 412.496L201.965 408.193L200.694 402.007L218.045 398.241L236.563 402.252L235.258 408.266Z"
          fill="#FBF8FF"
        />
        <path
          d="M228.153 386.177C223.879 384.512 219.305 386.132 219.12 386.177C218.935 386.132 212.928 384.512 208.654 386.177C205.026 387.587 203.663 390.935 204.599 396.112C205.719 402.343 209.67 405.264 211.888 407.438C213.147 408.666 214.383 409.121 215.204 409.139L218.38 409.521L219.316 409.485L221.453 409.121C222.273 409.112 223.671 408.784 224.93 407.556C227.148 405.391 231.261 401.516 232.381 395.275C233.294 390.071 231.781 387.587 228.153 386.177Z"
          fill="#2C9469"
        />
        <path
          d="M228.153 386.177C227.98 386.105 227.356 385.913 227.171 385.859C226.166 385.604 225.15 385.468 224.618 385.468C224.064 385.468 223.948 385.804 224.226 386.023C224.526 386.259 228.558 386.023 230.533 388.706C231.63 390.553 231.781 392 231.781 393.719C231.781 395.993 231.007 399.796 228.754 403.299C230.752 400.579 231.861 398.013 232.358 395.257C233.294 390.071 231.781 387.587 228.153 386.177Z"
          fill="#34A879"
        />
        <path
          d="M206.124 398.122C205.766 395.848 205.881 393.628 206.69 391.408C207.487 389.198 209.035 387.942 211.622 387.169C212.893 386.796 213.667 386.414 214.141 386.168C214.649 385.904 213.517 385.659 214.048 385.431C212.293 385.368 210.34 385.504 208.654 386.159C205.026 387.569 203.663 390.917 204.599 396.094C204.876 397.613 205.315 398.932 205.858 400.105C206.008 400.424 207.267 402.425 207.429 402.726C206.69 401.042 206.401 399.796 206.124 398.122Z"
          fill="#34A879"
        />
        <path
          d="M222.4 409.039C222.597 408.684 222.747 408.621 222.978 408.239C224.006 406.556 226.813 401.67 227.472 396.467C227.992 392.354 227.61 390.48 226.513 388.843C225.415 387.205 221.592 385.795 221.592 385.795C221.592 385.795 225.034 385.359 228.061 387.405C229.077 388.097 230.51 389.371 230.51 392.691C230.51 395.675 229.655 398.632 228.431 401.497C227.449 403.79 227.726 404.818 224.653 407.802C223.879 408.602 223.348 408.593 222.4 409.039Z"
          fill="#34A879"
        />
        <path
          d="M214.961 409.194C214.406 408.666 211.056 405 210.895 398.668C210.791 394.583 212.027 390.753 213.286 389.125C214.557 387.496 217.549 386.341 217.549 386.341C217.549 386.341 213.378 385.823 210.132 387.851C209.046 388.534 207.394 389.944 206.909 392.864C206.505 395.257 206.724 398.295 207.406 400.688C208.168 403.344 209.312 405.155 209.312 405.155L212.316 407.856C212.327 407.856 213.355 408.703 214.961 409.194Z"
          fill="#34A879"
        />
        <path
          d="M222.562 386.405C222.562 386.405 225.82 385.886 226.397 391.145C226.64 393.382 226.201 397.868 225.658 400.078C224.769 403.781 224.064 405.709 223.775 406.365C223.452 407.101 222.932 408.775 222.666 408.875C221.546 409.676 220.656 409.521 219.512 409.476C219.443 409.476 219.073 409.467 219.004 409.467C218.912 409.467 220.506 401.916 220.598 395.875C220.656 392.009 219.628 386.678 219.628 386.678L222.562 386.405Z"
          fill="#34A879"
        />
        <path
          d="M219.466 386.377C219.466 386.377 221.985 385.768 223.082 386.532C225.011 387.806 225.3 389.48 225.392 391.845C225.45 393.246 225.358 394.638 225.208 396.03C225.023 397.704 224.722 399.369 224.353 401.024C224.029 402.498 223.66 403.954 223.244 405.409C223.082 405.982 222.909 406.556 222.724 407.129C222.504 407.847 222.112 408.566 221.592 409.185C221.546 409.239 221.499 409.294 221.43 409.339C221.361 409.376 221.268 409.394 221.199 409.358C221.084 409.312 221.072 409.185 221.072 409.085C221.084 408.657 221.153 408.229 221.28 407.811C221.338 407.62 221.522 406.974 221.557 406.847C221.892 405.446 222.181 404.036 222.412 402.616C222.701 400.842 222.909 399.05 223.013 397.267C223.117 395.348 223.105 393.419 222.897 391.508C222.435 387.314 219.466 386.377 219.466 386.377Z"
          fill="#45C48A"
        />
        <path
          d="M220.39 386.314C222.169 385.886 226.236 385.495 228.916 387.651C231.111 389.416 231.446 393.182 229.805 398.923C228.881 402.171 227.587 405.1 224.653 407.793C225.265 406.51 228.142 401.798 228.869 395.575C229.297 391.881 228.731 389.88 227.518 388.288C226.224 386.578 221.765 386.286 220.39 386.314Z"
          fill="#45C48A"
        />
        <path
          d="M214.534 386.123C213.355 386.387 209.867 387.151 208.365 390.317C206.863 393.492 207.337 397.54 207.776 399.623C208.215 401.707 208.319 403.444 210.629 406.155C210.629 406.155 211.819 407.447 212.454 407.947C210.075 405.054 209.52 403.18 208.989 399.76C208.423 396.075 209.786 392.173 210.918 390.217C212.05 388.27 213.898 387.105 215.608 386.769C217.306 386.423 219.108 386.341 219.108 386.341C219.108 386.341 216.324 385.732 214.534 386.123Z"
          fill="#45C48A"
        />
        <path
          d="M205.881 399.996C204.345 395.029 205.073 391.372 207.579 388.588C208.792 387.242 209.82 386.732 214.534 386.132C216.717 385.85 218.08 386.241 218.08 386.241C218.08 386.241 216.474 385.322 212.697 385.559C208.977 385.786 206.528 387.751 205.974 388.67C204.784 390.053 203.374 393.965 205.881 399.996Z"
          fill="#45C48A"
        />
        <path
          d="M212.558 386.869C212.316 386.86 212.027 386.951 211.923 387.069C211.877 387.133 211.865 387.142 211.854 387.214C211.796 387.424 211.992 387.624 212.316 387.751C212.627 387.869 212.951 387.778 213.147 387.642C213.344 387.506 213.344 387.242 213.124 387.06C213.055 387.014 212.859 386.878 212.558 386.869Z"
          fill="#E6DFD8"
        />
        <path
          d="M208.573 391.208C208.631 391.354 208.873 391.445 209.058 391.463C209.15 391.472 209.254 391.481 209.358 391.463C209.659 391.427 209.843 391.336 209.913 391.108C209.971 390.89 209.82 390.608 209.347 390.58C209.058 390.562 208.85 390.608 208.677 390.799C208.619 390.862 208.607 390.881 208.573 390.953C208.527 391.044 208.55 391.126 208.573 391.208Z"
          fill="#E6DFD8"
        />
        <path
          d="M210.051 388.925C210.109 389.07 210.352 389.161 210.548 389.179C210.641 389.189 210.745 389.198 210.849 389.179C211.149 389.143 211.345 388.988 211.415 388.761C211.472 388.543 211.311 388.379 211.08 388.306C210.837 388.233 210.34 388.324 210.167 388.506C210.109 388.57 210.098 388.588 210.063 388.661C210.017 388.761 210.028 388.843 210.051 388.925Z"
          fill="#E6DFD8"
        />
        <path
          d="M207.903 393.965C208.018 394.11 208.272 394.174 208.457 394.165C208.55 394.165 208.642 394.156 208.723 394.128C208.977 394.047 209.162 393.901 209.116 393.646C209.07 393.41 208.758 393.264 208.515 393.219C208.261 393.173 207.891 393.301 207.81 393.519C207.787 393.592 207.776 393.61 207.787 393.692C207.799 393.792 207.845 393.883 207.903 393.965Z"
          fill="#E6DFD8"
        />
        <path
          d="M207.73 396.366C207.833 396.457 208.041 396.457 208.18 396.421C208.249 396.403 208.319 396.385 208.376 396.357C208.561 396.257 208.619 396.112 208.55 395.939C208.48 395.775 208.203 395.693 208.018 395.702C207.822 395.711 207.614 395.902 207.591 396.066C207.579 396.121 207.579 396.139 207.591 396.194C207.626 396.257 207.672 396.312 207.73 396.366Z"
          fill="#E6DFD8"
        />
        <path
          d="M207.822 398.695C207.926 398.786 208.134 398.786 208.272 398.75C208.342 398.732 208.411 398.714 208.469 398.686C208.654 398.586 208.711 398.441 208.642 398.268C208.573 398.104 208.296 398.022 208.111 398.031C207.914 398.04 207.706 398.231 207.683 398.395C207.672 398.45 207.672 398.468 207.683 398.523C207.706 398.595 207.753 398.65 207.822 398.695Z"
          fill="#E6DFD8"
        />
        <path
          d="M208.203 400.906C208.307 400.979 208.492 400.979 208.619 400.952C208.688 400.933 208.746 400.924 208.804 400.897C208.977 400.815 209.035 400.688 208.966 400.542C208.908 400.406 208.654 400.333 208.48 400.342C208.296 400.351 208.111 400.515 208.088 400.651C208.076 400.697 208.076 400.715 208.088 400.76C208.099 400.824 208.145 400.87 208.203 400.906Z"
          fill="#E6DFD8"
        />
        <path
          d="M209.867 386.505C209.924 386.641 210.121 386.75 210.282 386.787C210.363 386.805 210.444 386.823 210.525 386.823C210.768 386.823 210.976 386.75 211.01 386.55C211.045 386.359 210.825 386.177 210.629 386.086C210.433 385.995 210.063 385.995 209.936 386.15C209.89 386.205 209.878 386.214 209.855 386.277C209.82 386.35 209.832 386.423 209.867 386.505Z"
          fill="#E6DFD8"
        />
        <path
          d="M207.464 387.56C207.464 387.669 207.568 387.788 207.683 387.833C207.741 387.86 207.868 387.897 207.937 387.906C208.134 387.933 208.342 387.833 208.423 387.687C208.503 387.551 208.365 387.324 208.215 387.26C207.984 387.151 207.753 387.196 207.614 387.296C207.568 387.333 207.556 387.333 207.522 387.378C207.475 387.433 207.464 387.496 207.464 387.56Z"
          fill="#E6DFD8"
        />
        <path
          d="M205.777 389.134C205.777 389.243 205.904 389.325 206.02 389.371C206.078 389.398 206.101 389.407 206.17 389.407C206.297 389.425 206.493 389.389 206.563 389.234C206.609 389.125 206.528 388.97 206.401 388.879C206.262 388.788 206.043 388.77 205.904 388.87C205.858 388.907 205.847 388.907 205.812 388.952C205.789 389.016 205.777 389.07 205.777 389.134Z"
          fill="#E6DFD8"
        />
        <path
          d="M204.922 391.054C204.934 391.154 205.003 391.217 205.096 391.263C205.153 391.281 205.465 391.326 205.535 391.199C205.592 391.081 205.592 390.953 205.465 390.872C205.338 390.79 205.153 390.744 205.026 390.826C204.98 390.853 204.98 390.863 204.945 390.899C204.922 390.953 204.922 390.999 204.922 391.054Z"
          fill="#E6DFD8"
        />
        <path
          d="M204.645 393.264C204.761 393.355 204.922 393.237 204.992 393.173C205.003 393.155 205.026 393.137 205.026 393.119C205.061 393.046 205.026 393 204.945 392.964C204.899 392.946 204.842 392.937 204.795 392.937C204.738 392.937 204.691 392.955 204.657 392.991C204.622 393.028 204.599 393.073 204.599 393.119C204.61 393.164 204.61 393.237 204.645 393.264Z"
          fill="#E6DFD8"
        />
        <path
          d="M208.827 403.026C208.919 403.089 209.104 403.099 209.22 403.071C209.277 403.062 209.335 403.044 209.474 402.953C209.497 402.898 209.508 402.835 209.497 402.78C209.497 402.598 209.289 402.525 209.093 402.534C208.919 402.544 208.746 402.68 208.711 402.907C208.734 402.953 208.781 402.989 208.827 403.026Z"
          fill="#E6DFD8"
        />
        <path
          d="M209.786 405.027C209.913 405.036 210.04 405.054 210.155 405.009C210.259 404.973 210.329 404.882 210.317 404.782C210.306 404.6 210.155 404.545 209.947 404.545C209.67 404.563 209.578 404.818 209.786 405.027Z"
          fill="#E6DFD8"
        />
        <path
          d="M223.59 387.642C223.81 387.724 224.029 387.915 224.041 388.051C224.052 388.124 224.052 388.142 224.029 388.206C223.96 388.415 223.683 388.524 223.325 388.515C222.978 388.506 222.735 388.306 222.643 388.115C222.539 387.924 222.689 387.687 222.978 387.606C223.07 387.578 223.313 387.533 223.59 387.642Z"
          fill="#E6DFD8"
        />
        <path
          d="M226.732 386.286C226.952 386.368 227.171 386.559 227.183 386.696C227.194 386.769 227.194 386.787 227.171 386.851C227.102 387.06 226.825 387.169 226.467 387.16C226.12 387.151 225.878 386.951 225.785 386.76C225.681 386.569 225.831 386.332 226.12 386.25C226.213 386.232 226.455 386.186 226.732 386.286Z"
          fill="#E6DFD8"
        />
        <path
          d="M224.838 392.791C224.699 392.919 224.422 392.946 224.237 392.919C224.145 392.9 224.041 392.891 223.96 392.855C223.694 392.755 223.567 392.627 223.636 392.409C223.706 392.191 224.006 391.972 224.468 392.054C224.757 392.109 224.919 392.191 224.976 392.4C225 392.473 225 392.491 224.988 392.564C224.965 392.646 224.907 392.718 224.838 392.791Z"
          fill="#E6DFD8"
        />
        <path
          d="M230.36 391.272C230.221 391.399 229.944 391.427 229.759 391.399C229.667 391.381 229.563 391.372 229.482 391.336C229.216 391.235 229.089 391.108 229.158 390.89C229.228 390.671 229.528 390.453 229.99 390.535C230.279 390.59 230.441 390.671 230.498 390.881C230.521 390.953 230.521 390.972 230.51 391.044C230.487 391.126 230.429 391.208 230.36 391.272Z"
          fill="#E6DFD8"
        />
        <path
          d="M224.618 390.471C224.48 390.599 224.203 390.626 224.006 390.599C223.914 390.59 223.81 390.571 223.729 390.535C223.463 390.435 223.359 390.262 223.429 390.035C223.498 389.816 223.74 389.707 224.006 389.689C224.272 389.671 224.699 389.862 224.757 390.071C224.78 390.144 224.78 390.162 224.769 390.235C224.757 390.326 224.699 390.399 224.618 390.471Z"
          fill="#E6DFD8"
        />
        <path
          d="M229.228 388.861C229.089 388.988 228.812 389.016 228.615 388.988C228.523 388.979 228.419 388.961 228.338 388.925C228.072 388.825 227.968 388.652 228.038 388.424C228.107 388.206 228.35 388.097 228.615 388.079C228.881 388.06 229.308 388.252 229.366 388.461C229.389 388.534 229.389 388.552 229.378 388.625C229.366 388.716 229.308 388.788 229.228 388.861Z"
          fill="#E6DFD8"
        />
        <path
          d="M224.722 395.402C224.607 395.548 224.341 395.602 224.168 395.593C224.075 395.584 223.983 395.575 223.902 395.548C223.648 395.466 223.475 395.311 223.521 395.056C223.567 394.82 223.891 394.683 224.133 394.647C224.387 394.611 224.757 394.738 224.826 394.956C224.849 395.029 224.849 395.047 224.849 395.129C224.838 395.238 224.792 395.32 224.722 395.402Z"
          fill="#E6DFD8"
        />
        <path
          d="M224.526 397.94C224.387 398.04 224.145 398.04 223.971 398.004C223.891 397.986 223.81 397.958 223.729 397.913C223.509 397.795 223.44 397.613 223.533 397.404C223.625 397.203 223.96 397.112 224.191 397.131C224.434 397.149 224.676 397.376 224.699 397.586C224.711 397.658 224.711 397.667 224.688 397.74C224.665 397.822 224.607 397.886 224.526 397.94Z"
          fill="#E6DFD8"
        />
        <path
          d="M230.521 393.892C230.406 394.037 230.14 394.092 229.967 394.083C229.875 394.074 229.782 394.065 229.701 394.037C229.447 393.956 229.274 393.801 229.32 393.546C229.366 393.31 229.69 393.173 229.932 393.137C230.186 393.1 230.556 393.228 230.625 393.446C230.648 393.519 230.648 393.537 230.648 393.619C230.648 393.728 230.591 393.81 230.521 393.892Z"
          fill="#E6DFD8"
        />
        <path
          d="M230.14 396.557C230.002 396.658 229.759 396.658 229.586 396.621C229.505 396.603 229.424 396.576 229.343 396.53C229.124 396.412 229.054 396.23 229.147 396.021C229.239 395.821 229.563 395.757 229.794 395.775C230.036 395.793 230.279 395.993 230.313 396.203C230.325 396.275 230.325 396.285 230.302 396.357C230.279 396.439 230.21 396.503 230.14 396.557Z"
          fill="#E6DFD8"
        />
        <path
          d="M224.133 400.115C224.018 400.196 223.81 400.196 223.683 400.16C223.613 400.142 223.544 400.124 223.486 400.087C223.301 399.987 223.244 399.842 223.325 399.669C223.394 399.505 223.671 399.432 223.868 399.441C224.064 399.45 224.26 399.651 224.283 399.814C224.295 399.869 224.295 399.887 224.272 399.942C224.249 400.015 224.203 400.069 224.133 400.115Z"
          fill="#E6DFD8"
        />
        <path
          d="M223.729 402.343C223.625 402.416 223.44 402.416 223.313 402.389C223.255 402.371 223.186 402.353 223.128 402.325C222.955 402.243 222.909 402.116 222.978 401.97C223.047 401.834 223.301 401.77 223.475 401.779C223.66 401.788 223.844 401.952 223.856 402.098C223.868 402.143 223.868 402.161 223.844 402.207C223.833 402.262 223.787 402.307 223.729 402.343Z"
          fill="#E6DFD8"
        />
        <path
          d="M223.232 404.427C223.14 404.49 222.955 404.49 222.839 404.463C222.782 404.445 222.724 404.436 222.666 404.409C222.504 404.336 222.447 404.218 222.516 404.09C222.574 403.972 222.816 403.908 222.978 403.917C223.151 403.926 223.325 404.072 223.348 404.199C223.359 404.245 223.359 404.254 223.348 404.29C223.325 404.354 223.29 404.39 223.232 404.427Z"
          fill="#E6DFD8"
        />
        <path
          d="M222.655 406.41C222.574 406.465 222.4 406.465 222.285 406.437C222.227 406.428 222.169 406.41 222.123 406.392C221.973 406.328 221.915 406.219 221.973 406.11C222.031 406.001 222.25 405.955 222.4 405.955C222.562 405.964 222.735 406.092 222.759 406.21C222.77 406.246 222.77 406.255 222.759 406.292C222.747 406.337 222.712 406.374 222.655 406.41Z"
          fill="#E6DFD8"
        />
        <path
          d="M229.447 398.723C229.332 398.795 229.124 398.777 228.985 398.732C228.916 398.704 228.858 398.677 228.8 398.641C228.627 398.523 228.592 398.368 228.696 398.204C228.789 398.049 229.077 397.995 229.262 398.031C229.459 398.059 229.632 398.268 229.632 398.441C229.632 398.495 229.632 398.513 229.609 398.568C229.574 398.632 229.516 398.677 229.447 398.723Z"
          fill="#E6DFD8"
        />
        <path
          d="M228.742 400.906C228.627 400.97 228.442 400.952 228.327 400.906C228.269 400.888 228.199 400.861 228.153 400.833C227.992 400.733 227.957 400.606 228.049 400.46C228.13 400.333 228.396 400.287 228.569 400.315C228.742 400.342 228.904 400.524 228.916 400.66C228.916 400.706 228.916 400.724 228.893 400.77C228.858 400.833 228.812 400.87 228.742 400.906Z"
          fill="#E6DFD8"
        />
        <path
          d="M227.98 402.935C227.876 402.989 227.703 402.971 227.587 402.935C227.529 402.917 227.472 402.898 227.426 402.862C227.275 402.771 227.241 402.653 227.322 402.534C227.402 402.416 227.645 402.38 227.807 402.407C227.968 402.434 228.13 402.589 228.142 402.716C228.142 402.762 228.142 402.771 228.13 402.807C228.084 402.871 228.038 402.898 227.98 402.935Z"
          fill="#E6DFD8"
        />
        <path
          d="M227.137 404.845C227.044 404.891 226.871 404.882 226.767 404.845C226.709 404.827 226.652 404.809 226.605 404.782C226.467 404.7 226.42 404.6 226.501 404.49C226.571 404.39 226.802 404.354 226.952 404.381C227.114 404.409 227.264 404.545 227.275 404.663C227.275 404.7 227.275 404.709 227.264 404.745C227.241 404.791 227.194 404.818 227.137 404.845Z"
          fill="#E6DFD8"
        />
        <path
          d="M217.479 386.496C217.479 386.496 213.586 386.578 212.489 392.182C211.669 396.385 212.293 401.779 213.667 407.884C213.817 408.548 214.199 409.203 215.851 409.376C216.659 409.385 217.306 409.494 218.369 409.503C218.392 408.839 217.965 400.151 218.092 396.357C218.23 392.564 219.512 387.06 219.512 387.06L217.479 386.496Z"
          fill="#34A879"
        />
        <path
          d="M215.412 409.257C215.169 408.83 214.834 407.138 214.765 406.565C214.245 402.134 213.552 396.039 214.071 392.491C214.58 388.998 215.065 387.897 216.694 386.805C216.936 386.65 217.214 386.605 217.479 386.496C217.479 386.496 217.918 386.368 218.496 386.341C218.981 386.323 219.824 386.341 219.824 386.341C219.824 386.341 217.641 387.078 216.509 391.763C215.412 396.266 215.978 402.689 216.243 406.183C216.336 407.438 216.301 409.185 216.22 409.358C215.689 409.421 215.412 409.257 215.412 409.257Z"
          fill="#45C48A"
        />
        <path
          d="M216.474 387.697C216.243 387.76 216.012 387.942 215.978 388.079C215.966 388.151 215.966 388.17 215.978 388.233C216.024 388.443 216.289 388.579 216.659 388.588C217.006 388.606 217.26 388.415 217.375 388.233C217.491 388.051 217.375 387.806 217.087 387.706C216.994 387.669 216.752 387.606 216.474 387.697Z"
          fill="#E6DFD8"
        />
        <path
          d="M214.718 392.746C214.834 392.873 215.123 392.928 215.308 392.909C215.4 392.9 215.504 392.891 215.596 392.864C215.874 392.782 216.012 392.664 215.966 392.436C215.908 392.218 215.631 391.972 215.169 392.027C214.88 392.054 214.707 392.136 214.626 392.336C214.591 392.409 214.591 392.427 214.591 392.5C214.591 392.591 214.649 392.664 214.718 392.746Z"
          fill="#E6DFD8"
        />
        <path
          d="M215.157 390.444C215.284 390.58 215.562 390.626 215.747 390.617C215.839 390.608 215.943 390.599 216.035 390.58C216.313 390.499 216.428 390.326 216.393 390.098C216.347 389.88 216.116 389.753 215.862 389.716C215.596 389.68 215.157 389.844 215.065 390.044C215.042 390.116 215.03 390.126 215.042 390.198C215.042 390.289 215.088 390.371 215.157 390.444Z"
          fill="#E6DFD8"
        />
        <path
          d="M214.568 395.357C214.672 395.511 214.926 395.584 215.111 395.584C215.204 395.584 215.296 395.584 215.377 395.557C215.643 395.493 215.827 395.348 215.804 395.093C215.781 394.847 215.469 394.693 215.238 394.638C214.996 394.583 214.603 394.683 214.51 394.902C214.476 394.975 214.476 394.993 214.476 395.075C214.464 395.184 214.51 395.275 214.568 395.357Z"
          fill="#E6DFD8"
        />
        <path
          d="M214.499 397.895C214.626 398.004 214.869 398.022 215.042 397.995C215.123 397.977 215.215 397.958 215.296 397.922C215.527 397.813 215.619 397.64 215.55 397.422C215.481 397.222 215.157 397.103 214.926 397.103C214.684 397.103 214.418 397.322 214.372 397.522C214.36 397.595 214.349 397.604 214.372 397.676C214.372 397.767 214.43 397.831 214.499 397.895Z"
          fill="#E6DFD8"
        />
        <path
          d="M214.672 400.087C214.776 400.178 214.984 400.196 215.123 400.169C215.192 400.16 215.261 400.142 215.331 400.115C215.527 400.033 215.596 399.878 215.539 399.705C215.481 399.541 215.215 399.441 215.03 399.441C214.834 399.441 214.614 399.623 214.58 399.787C214.568 399.842 214.568 399.86 214.58 399.914C214.58 399.978 214.614 400.033 214.672 400.087Z"
          fill="#E6DFD8"
        />
        <path
          d="M214.799 402.325C214.892 402.407 215.077 402.434 215.204 402.416C215.273 402.407 215.331 402.398 215.4 402.38C215.585 402.316 215.654 402.198 215.608 402.043C215.562 401.898 215.331 401.807 215.146 401.798C214.961 401.789 214.753 401.925 214.707 402.061C214.695 402.107 214.684 402.116 214.695 402.171C214.718 402.225 214.753 402.28 214.799 402.325Z"
          fill="#E6DFD8"
        />
        <path
          d="M214.938 404.445C215.019 404.518 215.204 404.536 215.319 404.527C215.377 404.518 215.446 404.509 215.504 404.49C215.677 404.436 215.747 404.327 215.712 404.19C215.677 404.063 215.446 403.981 215.284 403.972C215.111 403.963 214.915 404.09 214.869 404.208C214.857 404.254 214.845 404.263 214.857 404.299C214.857 404.363 214.892 404.399 214.938 404.445Z"
          fill="#E6DFD8"
        />
        <path
          d="M215.157 406.583C215.238 406.647 215.4 406.665 215.515 406.656C215.573 406.647 215.631 406.647 215.689 406.628C215.85 406.583 215.92 406.483 215.885 406.364C215.85 406.246 215.643 406.173 215.481 406.164C215.319 406.155 215.134 406.264 215.088 406.374C215.077 406.41 215.077 406.419 215.077 406.455C215.088 406.51 215.111 406.546 215.157 406.583Z"
          fill="#E6DFD8"
        />
        <path
          d="M222.065 408.175C221.996 408.22 221.869 408.22 221.788 408.202C221.742 408.193 221.707 408.184 221.661 408.166C221.546 408.12 221.511 408.038 221.546 407.957C221.58 407.875 221.753 407.838 221.869 407.847C221.985 407.856 222.112 407.947 222.135 408.029C222.146 408.057 222.146 408.066 222.135 408.093C222.135 408.129 222.1 408.157 222.065 408.175Z"
          fill="#E6DFD8"
        />
        <path
          d="M215.377 408.302C215.435 408.348 215.562 408.366 215.643 408.357C215.689 408.357 215.735 408.348 215.77 408.339C215.885 408.302 215.943 408.229 215.92 408.139C215.897 408.057 215.735 408.002 215.619 407.993C215.504 407.984 215.354 408.066 215.331 408.148C215.319 408.175 215.319 408.184 215.319 408.211C215.319 408.248 215.342 408.275 215.377 408.302Z"
          fill="#E6DFD8"
        />
        <path
          d="M222.655 384.977C223.013 385.005 223.405 385.105 223.764 385.178C224.133 385.25 224.491 385.369 224.849 385.487C225.092 385.569 225.323 385.642 225.566 385.723C225.681 385.76 225.808 385.814 225.808 385.915C225.808 386.033 225.623 386.096 225.485 386.106C224.965 386.142 224.434 386.033 223.914 386.033C222.839 386.033 222.227 387.033 221.141 386.906C220.876 386.879 220.621 386.77 220.367 386.824C219.905 386.933 219.824 387.516 219.362 387.634C219.039 387.716 218.704 387.525 218.369 387.47C217.884 387.388 217.283 387.57 216.948 387.279C216.775 387.124 216.752 386.897 216.613 386.724C216.336 386.36 215.677 386.342 215.18 386.479C214.938 386.542 214.638 386.715 214.383 386.697C214.106 386.679 213.829 386.479 213.575 386.378C212.997 386.142 212.327 386.26 211.703 386.078C211.599 386.051 211.507 386.015 211.426 385.951C211.357 385.887 211.311 385.787 211.357 385.714C211.391 385.66 211.472 385.623 211.542 385.596C211.911 385.46 212.327 385.432 212.708 385.323C213.124 385.205 213.575 385.187 214.014 385.25C214.73 385.36 214.938 384.95 215.573 384.805C215.931 384.714 216.359 384.759 216.636 384.968C216.844 385.123 217.006 385.369 217.283 385.35C217.502 385.341 217.653 385.159 217.803 385.023C218.299 384.568 219.247 384.514 219.813 384.905C219.963 385.005 220.078 385.132 220.24 385.223C220.587 385.432 221.072 385.432 221.419 385.241C221.846 384.977 222.1 384.932 222.655 384.977Z"
          fill="#E6DFD8"
        />
      </g>
      <defs>
        <clipPath id="clip0">
          <rect width="53.0579" height="48.8077" fill="white" transform="translate(192.065 384.631)" />
        </clipPath>
      </defs>
    </svg>