<svg width="678" height="337" viewBox="0 0 678 337" fill="none" xmlns="http://www.w3.org/2000/svg">
<path d="M614.435 107.997C608.032 102.668 595.913 106.15 586.116 107.614C573.369 109.518 563.302 108.376 555.549 108.626C547.796 108.876 521.287 106.125 506.032 102.624C498.495 100.894 494.991 103.377 493.37 106.332C504.961 131.529 481.715 158.125 489.114 181.802C492.373 191.114 491.297 201.292 488.757 210.904L585.435 217.206C596.069 180.992 606.026 144.685 614.435 107.997Z" fill="#5B8484"/>
<path d="M489.115 181.802C484.376 177.796 504.782 122.944 493.371 106.332C491.711 109.358 492.028 112.878 492.028 112.878L480.541 185.883L477.773 210.188L488.759 210.904C493.528 199.283 496.806 188.305 489.115 181.802Z" fill="#4E7271"/>
<path d="M616.822 110.877C616.161 109.713 615.357 108.764 614.436 107.997C606.027 144.685 596.07 180.991 585.437 217.205L596.315 217.914C596.314 217.915 622.073 120.13 616.822 110.877Z" fill="#6D9998"/>
<path d="M564.422 266.862L585.06 307.197C585.06 307.197 590.486 307.169 590.149 304.932C589.812 302.695 577.293 263.802 577.293 263.802L564.422 266.862Z" fill="#281A0A"/>
<path d="M483.775 186.929C483.775 186.929 463.954 180.343 439.509 174.174C415.125 168.021 399.494 167.455 399.494 167.455L411.473 209.161L482.774 210.187C482.774 210.188 492.778 189.805 483.775 186.929Z" fill="#668E8D"/>
<path d="M402.496 209.162H412.5C412.5 209.162 409.045 181.383 403.997 170.898C400.746 164.146 393.994 168.147 395.244 175.65C396.494 183.152 402.496 209.162 402.496 209.162Z" fill="#39625F"/>
<path d="M392.993 213.163C392.993 213.163 394.493 207.161 409.999 206.911C425.504 206.661 483.252 209.162 483.252 209.162L509.784 212.275V225.668L489.527 228.477L392.993 213.163Z" fill="#6D9998"/>
<path d="M525.539 274.661C525.539 274.661 547.594 273.676 580.809 262.93C585.06 261.555 596.314 216.664 596.314 216.664L589.877 204.922L525.539 195.157V274.661Z" fill="#668E8D"/>
<path d="M529.087 203.769V206.036C529.087 206.036 529.916 202.285 534.23 202.66C538.544 203.035 552.893 208.338 557.863 210.188C562.833 212.038 573.392 215.074 577.604 215.767C580.935 216.316 584.779 216.164 586.561 212.6C588.073 209.576 557.824 206.035 557.824 206.035C557.824 206.035 532.653 197.033 530.854 199.283C529.054 201.533 529.087 203.769 529.087 203.769Z" fill="#496B68"/>
<path d="M489.527 228.477V253.177L510.925 250.007L509.784 225.668L489.527 228.477Z" fill="#7AABAA"/>
<path d="M392.993 213.163V234.909L489.527 253.177V228.477L392.993 213.163Z" fill="#4E7271"/>
<path d="M582.559 192.906C582.559 192.906 543.545 179.151 527.289 178.651C511.033 178.151 512.034 182.402 512.034 182.402C512.034 182.402 523.038 179.401 526.289 191.905C529.54 204.409 529.04 202.909 529.04 202.909C529.04 202.909 531.291 199.658 538.543 201.408C545.796 203.159 572.198 212.994 575.698 213.664C578.949 214.286 585.435 215.413 588.06 210.186C590.911 204.511 590.28 200.032 589.435 198.531C587.407 194.925 584.729 193.656 582.559 192.906Z" fill="#7EAAA7"/>
<path d="M417.001 264.681L403.795 313.698C403.795 313.698 404.496 315.699 407.748 313.698C410.999 311.697 428.255 274.661 428.255 274.661L425.385 265.752L417.001 264.681Z" fill="#260D08"/>
<path d="M498.686 278.265L489.526 334.956C489.526 334.956 492.527 337.707 495.278 334.956C498.029 332.205 514.799 275.648 514.799 275.648L512.034 273.684L498.686 278.265Z" fill="#3F240F"/>
<path d="M425.385 265.752L428.255 274.661L496.849 289.634L498.686 278.265L425.385 265.752Z" fill="#030004"/>
<path d="M509.784 185.153V225.667L512.035 273.684C512.035 273.684 515.786 278.936 525.54 274.661C532.941 271.417 529.041 202.909 529.041 202.909C529.041 202.909 529.88 187.654 520.082 182.402C510.284 177.15 509.784 185.153 509.784 185.153Z" fill="#4E7271"/>
<path opacity="0.69" d="M522.169 136.792L517.682 154.74H520.849L522.169 136.792Z" fill="#4E7271"/>
<path opacity="0.69" d="M513.867 173.701L520.732 155.87L517.486 155.47L513.867 173.701Z" fill="#4E7271"/>
<path opacity="0.69" d="M529.281 158.492L520.393 153.272L519.98 156.517L529.281 158.492Z" fill="#4E7271"/>
<path opacity="0.69" d="M507.707 151.346L518.198 153.289L517.525 155.843L507.707 151.346Z" fill="#4E7271"/>
<path opacity="0.69" d="M565.198 139.727L560.711 157.675H563.879L565.198 139.727Z" fill="#4E7271"/>
<path opacity="0.69" d="M556.897 176.636L563.761 158.805L560.515 158.405L556.897 176.636Z" fill="#4E7271"/>
<path opacity="0.69" d="M572.311 161.427L563.422 156.207L563.009 159.452L572.311 161.427Z" fill="#4E7271"/>
<path opacity="0.69" d="M550.736 154.281L561.228 156.224L560.555 158.778L550.736 154.281Z" fill="#4E7271"/>
<path d="M399.494 236.139C399.494 236.139 395.438 238.922 395.091 240.923C394.743 242.924 395.091 259.93 395.091 259.93L495.279 279.187L494.279 257.664L491.278 253.178L399.494 236.139Z" fill="#4E7271"/>
<path d="M511.014 251.916L512.022 274.661L495.279 279.186L494.278 257.663L490.5 253.033L510.925 250.007L511.014 251.916Z" fill="#7EAAA7"/>
<path d="M519.03 157.366C520.169 157.366 521.093 156.19 521.093 154.74C521.093 153.29 520.169 152.114 519.03 152.114C517.891 152.114 516.967 153.29 516.967 154.74C516.967 156.19 517.891 157.366 519.03 157.366Z" fill="#335554"/>
<path d="M560.161 157.485C560.47 156.068 561.691 155.131 562.887 155.392C564.083 155.653 564.803 157.013 564.494 158.43C564.185 159.847 562.964 160.784 561.768 160.523C560.571 160.262 559.852 158.902 560.161 157.485Z" fill="#335554"/>
<path d="M399.494 236.139L396.312 238.878L492.261 255.191L490.5 253.033L399.494 236.139Z" fill="#1E3C3C"/>
<path d="M510.925 250.007L511.014 251.916L492.261 255.191L490.5 253.033L510.925 250.007Z" fill="#1E3C3C"/>
<path d="M114.782 267.992C114.605 267.752 114.963 268.226 114.782 267.992C112.121 267.31 102.902 266.103 92.6004 266.103C82.9494 266.103 73.9894 267.508 70.7994 268.126C70.5504 268.443 71.0374 267.798 70.7994 268.126C73.2594 268.831 82.0854 269.352 92.6004 269.352C103.765 269.351 113.026 268.764 114.782 267.992Z" fill="#302523"/>
<path d="M87.2894 278.856C88.0784 270.318 92.3564 243.071 91.2384 218.826C90.6484 206.014 82.5724 163.224 78.2834 153.772C75.7674 148.231 73.5794 144.024 72.1714 141.803C71.9024 140.959 68.1334 138.784 70.4214 142.741C72.7094 146.694 81.9584 160.732 88.1134 213.335C91.0874 238.741 82.4784 296.235 81.8974 297.441C81.3164 298.646 84.5944 299.67 84.5944 299.67C86.4054 285.7 86.5804 286.513 87.2894 278.856Z" fill="#0C1911"/>
<path d="M119.444 204.442C118.492 205.14 104.052 241.127 101.932 252.347C100.181 261.62 97.1104 283.817 97.1104 283.817L99.7244 283.699C99.7244 283.699 105.566 249.308 107.446 240.157C110.137 227.065 121.291 203.617 121.291 203.617L119.444 204.442Z" fill="#0C1911"/>
<path d="M44.6524 195.718C44.6524 195.718 58.0894 203.029 62.7144 192.56C65.8884 185.375 65.8344 183.702 66.8394 180.819C67.7224 178.286 68.1964 172.211 68.1964 169.711C68.1964 162.372 63.9674 158.898 59.3844 154.317C54.5004 149.435 57.3394 164.811 55.3394 163.711C51.9994 161.874 49.3404 144.335 40.0704 142.686C38.3704 142.383 38.3144 148.175 38.3144 148.175C38.3144 148.175 33.5194 139.756 25.3664 137.975C17.2124 136.194 16.4034 134.375 13.6524 132.114C10.9014 129.854 7.11241 129.572 5.79041 126.489C4.46641 123.407 3.81041 137.941 6.81641 142.318C9.82241 146.696 18.3134 155.121 18.3134 155.121C12.3134 157.159 15.9704 164.488 18.5634 166.621C19.2514 167.185 32.6594 169.342 31.0884 176.29C28.8634 186.128 42.8614 178.935 44.8384 182.887C44.8394 182.886 33.8394 188.528 44.6524 195.718Z" fill="#1D3326"/>
<path d="M123.946 133.259C123.946 133.259 109.586 161.688 105.203 187.239C100.821 212.794 92.0294 287.059 92.2384 292.509C92.4474 297.96 88.6384 292.066 88.6384 292.066C88.6384 292.066 99.9594 194.308 105.378 174.362C111.065 153.432 121.563 132.966 121.563 132.966L123.946 133.259Z" fill="#0C1911"/>
<path d="M128.753 161.164C128.753 161.164 119.929 177.951 117.605 183.914C111.876 198.604 94.9394 273.185 94.8324 278.199C94.7254 283.213 89.4504 280.452 89.4504 280.452C89.4504 280.452 110.85 197.826 112.579 192.982C117.37 179.563 125.176 163.908 127.394 160.266C129.55 156.731 128.753 161.164 128.753 161.164Z" fill="#0C1911"/>
<path d="M76.1894 118.911C76.1894 118.911 84.0084 133.496 80.2664 140.407C76.5244 147.318 71.3034 144.407 71.3034 144.407L69.1724 141.803C69.1724 141.804 77.6714 136.324 76.1894 118.911Z" fill="#0C1911"/>
<path d="M78.4674 103.312L84.5244 113.307C84.5244 113.307 97.7264 109.067 97.7264 103.312C97.7264 97.5574 99.3644 99.3754 101.484 98.1644C103.604 96.9514 103.301 93.0154 101.484 89.9864C99.6674 86.9574 102.923 86.4264 104.437 84.9134C105.951 83.3994 110.797 72.4204 91.6414 66.3634C83.4934 63.7864 83.9184 65.7574 81.4954 66.3634C79.0734 66.9694 89.0684 86.0504 78.4674 103.312Z" fill="#0C1911"/>
<path d="M63.1614 189.079C68.8904 203.769 87.2914 281.656 87.3984 286.67C87.5054 291.684 92.7804 288.923 92.7804 288.923C92.7804 288.923 68.5044 192.741 63.9484 186.464C55.5794 174.933 60.8364 183.116 63.1614 189.079Z" fill="#0C1911"/>
<path d="M76.9534 103.312C76.9534 103.312 85.4334 101.495 84.2224 96.3474C83.0114 91.1974 83.7474 87.7424 86.0394 83.6264C91.4234 73.9604 85.5104 59.9604 78.4684 52.9604C74.0664 48.5854 66.5074 45.8774 62.0904 43.9604C58.1224 42.2384 55.6744 47.4264 55.6744 47.4264C55.6744 47.4264 45.9184 33.3844 43.5224 31.4604C40.4954 29.0304 39.3404 34.9604 39.3404 34.9604C35.7794 33.5564 29.1044 26.5374 25.1644 24.6694C17.2904 20.9344 1.54142 8.51641 1.23842 1.55041C0.935417 -5.41559 -3.91058 12.6574 7.90142 24.6694C19.7134 36.6824 49.6964 60.3054 54.2394 67.8774C58.7814 75.4504 74.2274 94.5304 76.9534 103.312Z" fill="#203A2C"/>
<path d="M118.649 207.804C118.649 207.804 108.764 206.981 109.216 203.322C110.91 189.596 122.656 199.825 123.708 195.535C125.111 189.81 125.547 187.931 132.153 186.055C138.759 184.178 145.53 185.323 149.58 185.966C150.229 186.07 146.581 187.205 143.535 188.245C128.12 193.507 131.603 197.304 127.438 201.155C123.472 204.821 120.462 206.324 118.649 207.804Z" fill="#14261C"/>
<path d="M76.1894 101.306C76.1894 101.306 87.2264 120.574 92.2884 189.629C93.7724 209.87 87.8604 270.415 87.8604 270.415L91.9114 270.964C91.9114 270.964 96.2394 209.024 94.4214 188.574C92.6044 168.125 85.9444 117.556 84.5254 113.307C81.9564 105.625 76.1894 101.306 76.1894 101.306Z" fill="#0C1911"/>
<path d="M123.522 169.787C123.522 169.787 108.56 163.522 121.291 152.71C125.799 148.882 131.332 152.607 133.421 149.284C135.512 145.963 136.817 142.104 141.856 141.154C146.896 140.206 151.725 145.875 156.839 141.802C167.146 133.592 172.564 130.416 171.728 131.438C171.004 132.323 172.555 136.194 169.701 138.701C166.846 141.208 165.602 151.736 154.423 154.343C152.682 154.749 157.936 156.107 155.155 158.086C152.373 160.066 147.837 165.143 148.696 168.013C150.196 173.024 141.696 181.429 129.914 176.161C124.792 173.872 122.206 173.273 123.522 169.787Z" fill="#14261C"/>
<path d="M159.956 77.1424C159.956 77.1424 150.956 78.6314 143.985 81.9164C139.26 84.1434 137.968 92.5174 136.769 93.9164C135.484 95.4164 133.895 87.5754 128.896 89.9164C117.151 95.4164 124.655 104.536 122.526 107.295C121.75 108.301 116.242 99.6004 107.984 108.916C106.569 110.512 103.838 118.912 108.648 127.847C110.607 131.486 101.495 132.4 104.651 139.583C106.108 142.899 112.333 144.403 114.412 142.76C116.491 141.117 138.021 110.101 146.875 106.236C155.728 102.369 163.966 101.86 166.954 94.7414C168.842 90.2414 162.968 79.8194 159.956 77.1424Z" fill="#0C1911"/>
<path d="M159.807 78.3804C159.807 78.3804 142.06 102.65 133.492 112.814C124.924 122.978 116.247 136.554 116.247 136.554C116.247 136.554 141.217 103.835 143.123 101.669C145.028 99.5014 157.937 80.8274 159.807 78.3804Z" fill="#203A2C"/>
<path d="M69.1724 141.804C69.1724 141.804 53.4164 121.059 37.6604 112.13C21.9044 103.202 9.42943 99.0094 4.70243 89.1904C-0.0245717 79.3714 9.06242 88.8634 14.8394 90.4624C17.2954 91.1434 30.1834 95.0254 33.1524 95.4624C33.1524 95.4624 29.1834 88.6154 34.0894 89.1904C37.5534 89.5974 47.3394 89.1904 54.4924 96.9224C57.7824 100.479 59.7164 105.702 63.4224 108.604C63.4224 108.604 65.0834 100.739 68.2514 103.313C82.5894 114.961 76.5244 136.813 69.1724 141.804Z" fill="#203A2C"/>
<path d="M119.451 143.994C119.451 143.994 115.153 144.802 113.721 141.753C112.289 138.704 113.29 129.867 116.248 128.46C121.292 126.062 120.719 120.448 122.411 117.58C128.898 106.58 141.866 110.859 142.527 107.241C143.915 99.6394 154.509 102.347 160.878 100.884C163.752 100.223 148.954 105.987 139.912 115.363C133.146 122.378 123.782 129.567 119.451 143.994Z" fill="#3B5646"/>
<path d="M122.41 170.195C122.41 170.195 123.661 167.059 126.546 163.657C128.753 161.053 132.075 158.349 135.571 156.443C138.565 154.811 143.701 152.635 148.208 150.136C154.489 146.654 159.623 142.544 163.621 141.609C165.317 141.211 156.376 145.161 148.729 150.432C143.249 154.209 137.414 156.34 136.331 156.935C132.653 158.955 128.937 162.653 126.17 166.407C125.048 167.929 124.251 169.666 123.414 170.985C123.245 171.254 122.41 170.195 122.41 170.195Z" fill="#0C1911"/>
<path d="M8.9364 130.579C8.9364 130.579 60.9164 174.131 63.9664 186.962L62.7384 189.402C62.7384 189.402 60.2654 181.911 54.0764 175.185C39.0934 158.903 17.7024 139.483 8.9364 130.579Z" fill="#0C1911"/>
<path d="M114.198 268.205C111.349 268.865 102.85 269.345 92.7814 269.346C82.2804 269.345 73.4704 268.824 71.0134 268.12C67.0544 273.581 72.8164 282.438 72.8164 290.019C72.8164 302.328 70.9454 311.094 80.0824 316.363C80.0754 316.366 80.0674 316.369 80.0604 316.372C81.5424 317.225 83.1054 317.929 84.7254 318.482C101.84 309.071 109.874 287.726 114.198 268.205Z" fill="#C6BDB3"/>
<path d="M114.548 268.119C114.447 268.148 114.319 268.176 114.197 268.204C109.873 287.726 101.84 309.071 84.7224 318.481C84.9384 318.554 85.1514 318.634 85.3694 318.703H92.7794H100.189C102.043 318.124 103.82 317.338 105.501 316.371C105.494 316.368 105.486 316.365 105.479 316.362C114.615 311.093 112.745 302.327 112.745 290.018C112.746 282.438 118.507 273.58 114.548 268.119Z" fill="#B2A9A1"/>
<path d="M271.21 241.995C271.162 241.006 270.39 240.21 269.404 240.122L265.797 239.799C264.809 239.71 263.908 240.359 263.686 241.326C263.181 243.517 262.264 247.576 261.389 251.826L271.474 248.648C271.407 245.897 271.286 243.569 271.21 241.995Z" fill="#725235"/>
<path d="M237.835 237.02C237.928 236.178 237.383 235.401 236.562 235.193L233.558 234.431C232.735 234.222 231.886 234.648 231.567 235.435C230.745 237.461 229.148 241.452 227.67 245.423L236.868 244.695C237.351 241.489 237.646 238.733 237.835 237.02Z" fill="#725235"/>
<path d="M227.669 245.422C226.431 248.746 225.277 252.057 224.734 254.191C223.241 260.054 213.95 302.397 212.298 309.932C212.147 310.623 212.439 311.332 213.032 311.718C213.952 312.316 215.187 311.904 215.557 310.871C218.925 301.471 232.2 263.627 234.225 256.961C235.467 252.873 236.298 248.47 236.867 244.694L227.669 245.422Z" fill="#876441"/>
<path d="M348.843 235.728C348.421 234.89 347.446 234.497 346.557 234.8L343.308 235.908C342.418 236.211 341.887 237.12 342.066 238.043C342.739 241.513 344.402 249.855 345.92 255.684C348.563 252.592 351.195 249.419 353.728 246.031C351.835 241.625 349.921 237.867 348.843 235.728Z" fill="#725235"/>
<path d="M290.577 241.92C328.881 241.92 359.932 239.335 359.932 236.147C359.932 232.959 328.881 230.374 290.577 230.374C252.273 230.374 221.222 232.959 221.222 236.147C221.222 239.335 252.273 241.92 290.577 241.92Z" fill="#876441"/>
<path d="M372.767 317.746C370.216 306.985 359.683 263.832 357.536 256.421C356.504 252.859 355.122 249.27 353.728 246.03C351.195 249.418 348.563 252.591 345.92 255.683C346.313 257.192 346.697 258.541 347.051 259.583C349.206 265.928 366.156 310.851 369.174 318.844C369.451 319.577 370.151 320.059 370.934 320.059C372.15 320.058 373.047 318.929 372.767 317.746Z" fill="#876441"/>
<path d="M261.388 251.824C260.436 256.447 259.534 261.297 259.268 264.228C258.629 271.268 255.736 321.839 255.223 330.838C255.176 331.663 255.645 332.428 256.4 332.763C257.572 333.283 258.921 332.579 259.157 331.319C261.305 319.852 269.628 273.735 270.731 265.67C271.533 259.812 271.591 253.549 271.473 248.648L261.388 251.824Z" fill="#876441"/>
<path d="M332.497 236.147L312.08 235.773L319.997 231.826H322.288L332.497 236.147Z" fill="#775537"/>
<path d="M279.163 201.624C279.163 201.638 279.187 201.652 279.216 201.666L279.196 201.597C279.185 201.607 279.163 201.615 279.163 201.624Z" fill="#B6C2B8"/>
<path d="M336.698 220.208L337.396 220.758C337.829 220.207 339.112 218.857 340.371 218.439C340.385 218.107 340.452 217.778 340.619 217.474C338.624 217.802 336.777 220.108 336.698 220.208Z" fill="#9E9085"/>
<path d="M344.788 219.524C343.858 217.888 341.832 217.313 340.755 217.442C340.709 217.447 340.665 217.467 340.619 217.475C340.451 217.779 340.385 218.108 340.371 218.44C340.535 218.386 340.698 218.343 340.859 218.324C341.729 218.231 343.317 218.734 344.016 219.964C344.847 221.427 344.269 223.527 342.343 226.037C340.649 228.244 338.875 229.83 337.512 230.712C337.375 231.07 337.35 231.452 337.375 231.828C339.065 230.914 341.204 228.981 343.048 226.579C345.777 223.019 345.501 220.777 344.788 219.524Z" fill="#B2A9A1"/>
<path d="M337.512 230.711C336.607 231.297 335.879 231.58 335.49 231.502C335.391 231.482 335.331 231.446 335.295 231.31L334.436 231.537C334.555 231.986 334.868 232.283 335.316 232.373C335.407 232.391 335.503 232.4 335.604 232.4C336.088 232.4 336.696 232.193 337.375 231.826C337.35 231.451 337.375 231.069 337.512 230.711Z" fill="#9E9085"/>
<path d="M338.473 215.845C336.818 216.034 333.04 216.167 328.626 216.167C322.993 216.167 318.38 215.951 317.918 215.677L320.31 225.827C321.851 232.402 321.879 234.851 323.945 235.637C336.414 238.251 334.7 222.912 338.473 215.845Z" fill="#B2A9A1"/>
<path d="M338.473 215.845C334.7 222.911 336.414 238.251 323.944 235.637C324.57 235.875 325.375 235.967 326.475 235.967H328.626H330.777C335.509 235.967 334.935 234.394 336.943 225.827L339.335 215.677C339.234 215.737 338.929 215.793 338.473 215.845Z" fill="#A59B92"/>
<path d="M339.351 215.604L339.334 215.677C339.359 215.662 339.38 215.647 339.38 215.632C339.379 215.623 339.361 215.613 339.351 215.604Z" fill="#B6C2B8"/>
<path d="M317.9 215.604L317.917 215.677C318.266 215.884 320.989 216.058 324.729 216.131C324.807 215.796 324.945 215.461 325.168 215.126C321.103 215.194 318.133 215.381 317.9 215.604Z" fill="#ABB7AC"/>
<path d="M328.625 215.097C327.413 215.097 326.254 215.107 325.168 215.126C324.945 215.461 324.806 215.796 324.729 216.131C325.937 216.154 327.25 216.167 328.625 216.167C334.258 216.167 338.871 215.951 339.333 215.677L339.35 215.604C339.055 215.321 334.374 215.097 328.625 215.097Z" fill="#B6C2B8"/>
<path opacity="0.69" d="M328.998 216.157C328.998 216.157 321.581 214.958 322.081 210.541C322.581 206.124 333.59 206.54 334.437 198.148C335.141 191.175 330.888 190.042 325.17 189.875C324.191 189.846 339.235 188.426 339.381 198.259C339.501 206.341 330.898 203.479 329.915 210.541C329.475 213.705 332.51 216.131 332.51 216.131L328.998 216.157Z" fill="#DDDDD4"/>
<path d="M299.33 227.88H249.497V235.773H299.33V227.88Z" fill="#B2AF90"/>
<path d="M299.33 222.874H251.663V227.879H299.33V222.874Z" fill="#AFCCAA"/>
<path d="M254.246 227.88H252.809V235.773H254.246V227.88Z" fill="#CCC9B4"/>
<path d="M257.559 222.874H255.684V227.879H257.559V222.874Z" fill="#D5DDD3"/>
<path d="M249.497 235.773L243.99 231.871L249.497 231.495V235.773Z" fill="#775537"/>
<path d="M641.317 291.393C641.317 292.129 638.864 292.726 635.838 292.726C632.81 292.726 630.357 292.128 630.357 291.393C630.357 290.658 632.81 290.06 635.838 290.06C638.864 290.06 641.317 290.658 641.317 291.393Z" fill="#232121"/>
<path d="M610.624 298.8C610.624 299.536 608.171 300.133 605.145 300.133C602.117 300.133 599.664 299.535 599.664 298.8C599.664 298.064 602.117 297.466 605.145 297.466C608.17 297.467 610.624 298.065 610.624 298.8Z" fill="#232121"/>
<path d="M677.897 302.476C677.897 303.212 675.444 303.809 672.418 303.809C669.39 303.809 666.937 303.211 666.937 302.476C666.937 301.74 669.39 301.142 672.418 301.142C675.444 301.142 677.897 301.74 677.897 302.476Z" fill="#232121"/>
<path d="M616.095 55.06L615.91 54.9041L648.598 13.864L648.782 14.0201L616.095 55.06Z" fill="white"/>
<path d="M633.209 69.036C632.71 69.697 631.939 69.954 631.484 69.611L599.502 45.463C599.049 45.121 599.084 44.308 599.583 43.647C600.082 42.986 600.855 42.729 601.308 43.071L633.29 67.219C633.745 67.563 633.708 68.376 633.209 69.036Z" fill="white"/>
<path d="M600.838 43.594L600.712 43.3761L641.046 7.67105L641.17 7.89005L600.838 43.594Z" fill="white"/>
<path d="M604.202 46.122L604.061 45.915L642.442 9.17305L642.58 9.38005L604.202 46.122Z" fill="white"/>
<path d="M605.287 46.939L605.144 46.736L642.697 10.1431L642.839 10.347L605.287 46.939Z" fill="white"/>
<path d="M606.356 47.743L606.21 47.543L643.842 10.236L643.988 10.437L606.356 47.743Z" fill="white"/>
<path d="M607.401 48.5291L607.25 48.332L644.012 11.1411L644.16 11.338L607.401 48.5291Z" fill="white"/>
<path d="M608.8 49.1411L608.647 48.9471L644.723 11.6821L644.877 11.875L608.8 49.1411Z" fill="white"/>
<path d="M609.842 49.925L609.686 49.733L645.546 12.305L645.702 12.496L609.842 49.925Z" fill="white"/>
<path d="M610.834 50.672L610.676 50.483L646.239 12.829L646.396 13.0181L610.834 50.672Z" fill="white"/>
<path d="M611.811 51.8481L611.648 51.664L646.613 13.562L646.777 13.747L611.811 51.8481Z" fill="white"/>
<path d="M613.304 52.967L613.133 52.7921L647.074 13.918L647.245 14.094L613.304 52.967Z" fill="white"/>
<path d="M614.237 54.489C614.222 54.376 625.845 40.181 629.834 35.385C637.075 26.683 646.083 15.948 647.639 14.33L647.793 14.523C644.648 17.789 614.951 53.65 614.503 54.441L614.405 54.402L614.237 54.489Z" fill="white"/>
<path d="M603.331 45.027L603.195 44.815L641.864 8.73404L641.998 8.94405L603.331 45.027Z" fill="white"/>
<path d="M601.874 44.372L601.744 44.1561L640.866 8.74904L640.995 8.96405L601.874 44.372Z" fill="white"/>
<path d="M633.132 68.201L656.429 19.634L656.676 19.694L633.378 68.262L633.132 68.201Z" fill="white"/>
<path d="M629.781 65.659L654.611 18.687L654.848 18.7641L630.018 65.735L629.781 65.659Z" fill="white"/>
<path d="M628.698 64.838L653.611 18.701L653.845 18.782L628.932 64.9191L628.698 64.838Z" fill="white"/>
<path d="M627.631 64.0311L653.208 17.622L653.442 17.708L627.865 64.116L627.631 64.0311Z" fill="white"/>
<path d="M626.589 63.2401L652.295 17.702L652.526 17.7921L626.82 63.331L626.589 63.2401Z" fill="white"/>
<path d="M625.618 62.063L651.581 17.159L651.808 17.254L625.846 62.155L625.618 62.063Z" fill="white"/>
<path d="M624.578 61.275L650.76 16.538L650.985 16.635L624.805 61.372L624.578 61.275Z" fill="white"/>
<path d="M623.59 60.526L650.067 16.012L650.291 16.1131L623.814 60.6261L623.59 60.526Z" fill="white"/>
<path d="M622.191 59.9081L649.263 15.847L649.483 15.953L622.412 60.0141L622.191 59.9081Z" fill="white"/>
<path d="M620.706 58.7791L648.801 15.4901L649.015 15.606L620.919 58.894L620.706 58.7791Z" fill="white"/>
<path d="M618.986 58.297L619.049 57.983L619.018 58.14L618.959 58.028C619.597 57.379 645.958 18.998 648.239 15.08L648.464 15.175C647.335 17.114 639.478 28.718 633.09 38.064C629.57 43.216 619.099 58.281 618.986 58.297Z" fill="white"/>
<path d="M631.072 66.1971L655.189 19.127L655.429 19.1991L631.313 66.269L631.072 66.1971Z" fill="white"/>
<path d="M632.101 67.4191L655.445 20.097L655.688 20.164L632.343 67.484L632.101 67.4191Z" fill="white"/>
<path d="M640.279 7.05664L637.24 11.0814L654.547 24.1488L657.586 20.124L640.279 7.05664Z" fill="white"/>
<path d="M646.031 17.7195L617.616 55.3531L617.904 55.5706L646.319 17.937L646.031 17.7195Z" fill="white"/>
<path d="M646.871 16.967C646.17 16.453 646.017 15.4581 646.531 14.7571L650.733 9.02906C651.247 8.32806 652.242 8.17505 652.943 8.68905C653.644 9.20305 653.797 10.1981 653.283 10.8991L649.081 16.6271C648.567 17.3291 647.572 17.482 646.871 16.967Z" fill="white"/>
<path d="M605.622 298.947L604.665 298.654L641.519 178.248L671.873 30L652.931 11.256L653.634 10.545L672.961 29.67L672.907 29.935L642.488 178.495L605.622 298.947Z" fill="#232628"/>
<path d="M642.49 178.29L641.518 178.528L671.935 302.936L672.907 302.699L642.49 178.29Z" fill="#232628"/>
<path d="M642.075 180.715L635.36 291.339L636.358 291.399L643.074 180.776L642.075 180.715Z" fill="#232628"/>
</svg>
